<?xml version="1.0" encoding="utf-8"?>
<!-- Generator: Adobe Illustrator 24.1.2, SVG Export Plug-In . SVG Version: 6.00 Build 0)  -->
<svg version="1.1" id="Layer_1" xmlns="http://www.w3.org/2000/svg" xmlns:xlink="http://www.w3.org/1999/xlink" x="0px" y="0px"
	 viewBox="0 0 1024 1024" style="enable-background:new 0 0 1024 1024;" xml:space="preserve">
<style type="text/css">
	.st0{fill:#6865F2;}
	.st1{fill:#B0B0FF;}
	.st2{fill:#CBCBFE;}
	.st3{fill:#FFFFFF;}
	.st4{fill:url(#SVGID_1_);}
</style>
<path class="st0" d="M122.2,244.6c0.2,1.3,0,2.6-0.9,3.7c-1.4,1.6-3.1,1.6-5,1.6c-1.8-1.6-3.1-3.1-3.3-5.6c-0.1-1,0.1-2.2,0.8-3
	c1.1-1.3,2.8-1.4,4.4-1.3c0.3,0,0.5,0.1,0.8,0.1C120.7,241.4,121.9,242.3,122.2,244.6z"/>
<path class="st0" d="M140.4,251.4c0.3,1.3,0.3,2.7-0.4,3.9c-0.8,1.4-2.5,2-4.1,2.1c-0.5,0-0.9-0.1-1.4-0.2c-1.7-1-3.7-2.1-4.2-4.2
	c-0.3-1.3-0.3-2.4,0.5-3.5c1.3-1.8,3.5-2.3,5.6-2.5C138.4,248.2,139.8,249,140.4,251.4z"/>
<path class="st0" d="M137.2,234.5c-0.1,1.6-0.8,3-2.1,3.9c-1.5,1-3.1,0.8-4.8,0.5c-1.7-1.7-2.9-3.2-3-5.7c0-1.5,0.6-2.8,1.8-3.8
	c1.6-1.3,3.7-1.1,5.6-0.9C136.4,230.4,137.3,231.9,137.2,234.5z"/>
<path class="st0" d="M744.2,757c0.2,1.7-0.3,3.4-1.4,4.7c-1.5,1.7-3,2.3-5.2,2.4c-0.4,0-0.9,0-1.3,0c-1.9-1.7-3.2-3.6-3.4-6.2
	c-0.1-1.6,0.5-3.3,1.6-4.5c1.7-1.8,3.9-1.8,6.2-1.9C742.7,753.1,743.9,754.4,744.2,757z"/>
<path class="st0" d="M734.5,741.3c0.2,1.4,0.2,3-0.7,4.3c-0.9,1.3-2.4,2-4,2.2c-1,0.1-2-0.1-3-0.3c-2.1-1.4-4.1-2.6-4.7-5.2
	c-0.3-1.5-0.1-3.1,0.8-4.4c1.1-1.5,3.1-2.6,4.9-2.8c0.7-0.1,1.4-0.1,2.1-0.1C732.3,736.6,734,738.3,734.5,741.3z"/>
<path class="st0" d="M723.5,758.3c0.1,2-0.5,3.9-1.8,5.3c-1.5,1.6-3.5,2.4-5.7,2.5c-0.5,0-1,0-1.5,0c-2.3-1.9-3.7-3.6-3.9-6.6
	c0-0.3,0-0.5,0-0.8c0-0.3,0-0.5,0.1-0.8c0-0.3,0.1-0.5,0.1-0.8c0.1-0.3,0.1-0.5,0.2-0.7s0.2-0.5,0.3-0.7c0.1-0.2,0.2-0.5,0.4-0.7
	c0.1-0.2,0.3-0.4,0.4-0.6c0.2-0.2,0.3-0.4,0.5-0.6c1.7-1.7,3.7-2.4,6.1-2.4c0.3,0,0.7,0,1,0C721.9,753.4,723.3,755.2,723.5,758.3z"
	/>
<path d="M195.3,898.7c0.7,2.9,6.1,7.8,8.1,10.3c2.8,3.6,11.4,16.3,11,20.5c-0.8,1.3-0.9,1.3-2.3,1.9c-1.2-0.2-1.2,0-2.1-0.9
	c-4.6-11.9-13.8-22.4-22.6-31.5c-2.2-2.3-4.9-4.3-7-6.7c-1-1.2-1.4-1.8-1.6-3.3l0.7-0.6c4.9-0.3,15,7.5,18.9,10.8
	C197.3,899.1,196.3,898.9,195.3,898.7z"/>
<path d="M154.9,942.2c-1.1,0.2-0.7,0.3-1.6-0.4c-4.1-2.9-7.7-8.4-11.2-12.2c-9.1-9.6-21.5-19.9-33.2-26.1
	c5.9,6.7,28.4,31.6,27.7,38.9c-0.1,1.2-0.4,1.3-1.2,2c-2.3-0.9-4-2.5-6.2-3.6c-4.6-2.3-10.1-3.8-15-5.3c3.5,2.2,10.8,6,12.3,10.1
	c-0.4,0.9-0.1,0.8-0.9,1.1c-1,0.3-1.9,0.2-2.9,0.1c-4.4-3.5-9.4-6.5-14.2-9.5c-1.7-1.1-4.1-2.2-5.6-3.5c-0.2-0.2-0.4-0.5-0.7-0.7
	c-0.2-0.1-0.5-0.2-0.7-0.3l0.6-0.9c7.5-3.6,18.9,0.6,26.2,3.2c-7.2-11.5-17.1-22.8-27-32.2c-2.4-2.2-9.1-7.3-9.6-10.4l0.7-0.7
	c1.2-0.1,2,0,3.1,0.4c18.2,5.6,51.7,30.5,60.6,47.9L154.9,942.2z"/>
<path d="M724.9,933.2c-1.4-0.1-1.6-0.7-2.4-1.6c7-10.4,13.3-21.5,20.1-32c5.2-5.4,9.3-12.6,14.1-18.6c5.4-6.6,11.7-12.5,16.8-19.3
	c-18,9.5-36.5,30-46.9,47.3c-2.3,3.8-9.5,20.5-11.4,22.2c-0.9,0.9-1.3,0.7-2.4,0.4c-1.2-1.6-1.2-1.5-1-3.5
	c-4.2-6.1-2.3-17.7-1.9-24.9c-0.3-2.8-0.9-5.3-2.3-7.7c-1.6,11.8-3.4,23.6-4.5,35.4c-0.9,0.6-1.6,0.5-2.6,0.3
	c-0.7-0.2-1-0.3-1.7-0.5c0-10.4,3.7-51.4,8.6-58.4l1-0.5c3.4,2.1,5.3,12,6.2,16c2.2,9.5,2.8,18.7,2.7,28.4c3.6-6.6,7-13,11.3-19.2
	c13-18.3,36-40.1,57.9-46.2c1.1-0.3,1.7-0.5,2.8-0.1c-0.1,3.4-11.8,13.9-14.9,17.1c-12.3,13.2-22.9,27.6-32.8,42.7
	c-4.7,7.3-9,14.9-14,22C726.8,932.8,725.7,933.3,724.9,933.2z"/>
<path class="st1" d="M711.4,898c1.3,9.4,2,20.8,0.2,30.2c-4.2-6.1-2.3-17.7-1.9-24.9c-0.3-2.8-0.9-5.3-2.3-7.7
	c0.5-3.6,0.8-7.2,1.7-10.7C710,889.1,711.1,893.6,711.4,898z"/>
<path d="M228.1,929.6c-0.4,0-0.8,0.2-1.1,0c-1.9-0.8-14.5-20.2-18.8-23.7c-7.9-9.7-17.8-19-27.6-26.6c-25.4-19.8-80-49.6-76-87.8
	c0.6-5.9,3.1-11.6,7.7-15.4c6.3-5.2,14.2-5.5,21.9-4.6c11.5,1.4,23.2,6.2,30.5,15.5c4,5.1,6.6,11.8,5.8,18.4c-0.5,4-2.5,7.3-5.7,9.6
	c-5,3.6-11.6,4.7-17.6,3.7c-5.2-0.9-10.3-3.4-13.3-7.9c-1.7-2.5-2.5-5.5-1.7-8.5c0.1-0.3,0.2-0.6,0.3-1c0.1-0.3,0.2-0.6,0.4-0.9
	c0.1-0.3,0.3-0.6,0.5-0.9c0.2-0.3,0.4-0.6,0.6-0.8c0.2-0.3,0.4-0.5,0.6-0.8c0.2-0.2,0.5-0.5,0.7-0.7c0.2-0.2,0.5-0.4,0.8-0.6
	c0.3-0.2,0.5-0.4,0.8-0.6c3-1.8,6.8-2,10.1-1.1c2.4,0.6,4.4,1.3,5.7,3.5c0.3,0.5,0.5,1.1,0.7,1.6l-0.3,1c-1.3,0.2-1.7,0-2.7-0.8
	c-2.6-2-3.8-2.5-7.2-2.3c-1.9,0.1-3.8,0.7-5,2.2c-1.2,1.4-1.5,3.3-1.1,5.1c0.6,2.9,2.9,5.1,5.5,6.5c4.3,2.4,10.2,3.1,14.9,1.6
	c3.3-1,6.1-3.2,7.6-6.3c1.8-3.6,1.5-7.7,0.1-11.4c-2.9-7.5-10-13.2-17.3-16.2c-8-3.4-19.6-5.6-27.9-2.2c-4.5,1.9-7.9,5.5-9.6,10.1
	c-2.9,7.8-0.6,17.1,2.9,24.3c13.3,27.3,44.1,43.4,67.2,61.3c13.1,10.1,25.1,21.3,35.5,34.1c5.2,6.4,10.7,13.7,14.2,21.2
	C229.5,928.8,228.8,929.2,228.1,929.6z"/>
<path d="M890,918.9c1,0.2,1,0.4,1.7,1c0.1,1,0.2,1.3-0.4,2.1c-2.7,3.5-9.2,7.5-12.6,10.5c-7,6.2-13.3,13.5-19.1,20.8
	c-1.2,0.1-1.9,0.2-3-0.3c-1.2-6.3,17-19.9,17.6-23.9c-8.2,2.7-20.1,18.6-25.6,19.4c-0.2,0-0.4,0-0.6,0c3.3-16.2,10.8-32.7,17.4-47.8
	c3.7-5.5,6.6-11.9,9.7-17.8c-15.5,12.4-26.9,31-35.2,48.9c-2,4.2-3.5,8.6-5.4,12.8c-1,2.3-1.8,4.3-4.7,4.2c-1-1-1.5-1.4-1.9-2.7
	c-0.3,0.6-0.1,0.2-0.7,0.9c-2.2-1.6-2.9-10-3.4-12.9c-1.8-2.1-2.4-4.7-3.6-7.2c0,5.1,1.2,13.6-0.9,18.3c-1.3,0.5-1.9,0.3-3.3,0.1
	c-0.2-0.4-0.5-0.8-0.6-1.2c-0.3-13.4-1.1-26.6-2.3-39.9l-0.7-0.2l0.6-0.1l-0.2-4.2c1.5-0.1,2.3,0.3,3.4,1.3
	c8.9,8.3,14.6,25.1,15.7,37c10-22.8,20.6-43.7,41.1-58.9c4-3,8.3-6.3,13-8.2c0.8-0.3,1.4-0.4,2.2-0.3c0.3,1.2,0.2,1.7-0.4,2.7
	c-2.3,4-5.3,7.7-7.6,11.7c-8.8,15-17.7,33.2-22.7,49.8C864,929.9,882,917.7,890,918.9z"/>
<path class="st2" d="M827.9,946.1c-0.3,0.6-0.1,0.2-0.7,0.9c-2.2-1.6-2.9-10-3.4-12.9c-0.1-3.3-1.1-4.8,1.1-7.7
	C826.6,932.9,827.3,939.5,827.9,946.1z"/>
<path class="st1" d="M824.8,926.5c-2.2,2.9-1.2,4.3-1.1,7.7c-1.8-2.1-2.4-4.7-3.6-7.2l-1.3-15.5C821,916.4,823.2,921.3,824.8,926.5z
	"/>
<path class="st0" d="M943.2,385.9c1.5,3.6,0.5,7.5-1,10.9c-1,2.3-2.2,4.4-3.7,6.3c6.3-1,13.2-2.1,18.8,2c1.4,1,2.6,2.4,2.9,4.1
	c0.4,1.8-0.2,3.5-1.3,4.9c-2.9,3.5-8.1,4.7-12.4,5c-2.4,0.2-4.8,0.1-7.2,0c2.5,2.9,3.9,5.8,3.8,9.7c-0.1,2.6-1.1,5.2-3.1,6.9
	c-0.2,0.2-0.4,0.3-0.6,0.4c-0.2,0.1-0.4,0.3-0.6,0.4c-0.2,0.1-0.4,0.2-0.7,0.3c-0.2,0.1-0.5,0.2-0.7,0.2c-0.2,0.1-0.5,0.1-0.7,0.2
	c-0.2,0-0.5,0.1-0.7,0.1c-0.2,0-0.5,0-0.7,0c-0.2,0-0.5,0-0.7,0c-2.6-0.3-5.1-2-6.6-4.1c-0.9-1.3-1.7-2.9-2.3-4.4
	c-0.5-1.6-1-3.3-1.4-5c-4.6,2.7-9.1,5.1-14.7,3.6c-2.5-0.6-5.2-2-6.5-4.4c-0.9-1.6-0.8-3.4-0.2-5c1.8-4.7,6.1-5.9,9.6-8.9
	c-3.6-2.9-9-6.2-9.6-11.2c-0.2-2,0.4-3.8,1.8-5.3c1.7-2,4.4-2.9,7-2.9c4.3,0,9,3.2,12.5,5.3c0.8-4.8,2.2-9.6,6.5-12.4
	c2-1.4,4-1.7,6.4-1.8C939.7,382.1,942,383.1,943.2,385.9z"/>
<path class="st3" d="M930.8,409.5c4.8-0.2,11.5-0.8,16.1,0.5c-5,1.3-10.6,0.8-15.8,1.2c1,4.8,3,11,2.2,15.8
	c-1.1-0.5-1.5-2.3-1.9-3.3c-1.4-3.8-1.5-8.3-2-12.3c-3.1,1.2-6.9,2.3-9.7,4.1c-2.2,1.5-4.1,2.5-6.7,3.2l-0.3-0.3
	c2.8-3.1,11.5-7.5,15.6-8.9c-3.7-1-14.9-7.7-17-11c-0.1-0.1-0.1-0.3-0.2-0.4l0.1-0.2c4.3,1.5,12.2,7.5,16.9,10.2
	c1.6-5.5,3.6-15.3,8.5-18.7C934.3,396,931.7,402.5,930.8,409.5z"/>
<path class="st0" d="M122.4,357.9c2.5,5.8,1.2,15-0.7,20.8c6.6-3.6,15.7-7.4,23.3-5.1c2.7,0.8,5,2.5,6.3,5c1.4,2.7,1.4,5.8,0.5,8.7
	c-1.5,4.2-5.1,7.2-9,9c-6.1,2.7-11.7,2.1-18,0.5c6.6,4.2,14.6,8.4,16.3,16.7c0.7,3.3,0,6.6-2,9.3c-2,2.7-5.2,4.3-8.5,4.6
	c-3.7,0.3-7.1-1.2-9.9-3.6c-4.1-3.5-6.4-8.5-8.3-13.4c-0.1,0.2-0.2,0.3-0.3,0.5c-4.9,7.9-4,15-15.6,18.2c-2.6,0.7-5.4,0.6-7.8-0.8
	c-2.6-1.5-4.2-4.2-4.8-7.1c-0.8-4.4,0.9-8.5,3.4-12c2.6-3.6,5.9-6.3,9.6-8.7c-7.1,0.3-16.6,1.7-22.2-3.5c-2.2-2.1-3.4-4.9-3.5-8
	c-0.1-3.4,1-7,3.5-9.4c3.3-3.4,8.3-4.2,12.8-4c4.9,0.2,8.9,1.5,13.2,3.7c-2.5-6.8-3.6-14.4-0.3-21.2c1.7-3.4,4.4-6,8.1-7.1
	c1.8-0.6,3.6-0.5,5.5-0.4C118,352.2,120.7,353.9,122.4,357.9z"/>
<path class="st3" d="M113,390.9c6-2.2,15.7-6.4,21.9-6.4l0.4,0.4c-4,3.3-18.6,6.2-20.3,8c-0.2,0.3-0.2,0.7-0.3,1
	c1.5,7.6,11.3,13.6,14,21.6c-5.8-5.6-11.7-12.3-16.2-19l-0.6-0.3c-1.2,1.7-2,3.5-3.1,5.3c-2.6,4.2-6.2,8.4-9.8,11.8l-0.5-0.1
	c3.5-6.7,8.1-12.8,11.7-19.4l-0.7-0.4c-3.6-1.9-14.5-4.8-16.4-7.5c4.7-1.1,14.7,3.5,18.8,5.6c-1.5-6.6-2.8-16.8-0.3-23.4
	c0.4-0.3,0.9-0.8,1.4-1C113.7,375.1,112.9,383,113,390.9z"/>
<path class="st0" d="M942.6,96.6c3.7,6.3,2.3,14.7,0.5,21.4c-2.9,10.4-8.8,19.7-15.1,28.4c10.8-6.9,23.1-12.9,36.3-9.9
	c4.8,1.1,9.3,3.7,11.9,7.9c2.6,4.1,3.1,9.3,1.9,14c-1.5,5.8-5.6,10.4-10.7,13.4c-9.8,5.5-23.5,4.9-34.1,2.6c7,7.2,17.6,19,17.4,29.7
	c-0.1,4.3-1.8,8.5-4.9,11.4c-3.6,3.3-8.3,4.6-13.1,4.3c-6.2-0.3-12.1-3.5-16.1-8.2c-4.6-5.5-6.7-13.1-7.9-20.1c-0.5-3-0.9-6-1.6-8.9
	c-3.6,9.1-11.3,17.4-20.4,21.3c-4.8,2.1-10.2,2.3-15,0.2c-0.3-0.1-0.5-0.2-0.8-0.4c-0.3-0.1-0.5-0.3-0.8-0.4
	c-0.3-0.1-0.5-0.3-0.8-0.5c-0.2-0.2-0.5-0.3-0.7-0.5c-0.2-0.2-0.5-0.4-0.7-0.5c-0.2-0.2-0.5-0.4-0.7-0.6c-0.2-0.2-0.4-0.4-0.6-0.6
	c-0.2-0.2-0.4-0.4-0.6-0.6c-0.2-0.2-0.4-0.4-0.6-0.7c-0.2-0.2-0.4-0.5-0.5-0.7c-0.2-0.2-0.3-0.5-0.5-0.7c-0.2-0.2-0.3-0.5-0.5-0.7
	c-0.2-0.3-0.3-0.5-0.4-0.8c-0.1-0.3-0.3-0.5-0.4-0.8c-0.1-0.3-0.2-0.5-0.4-0.8s-0.2-0.5-0.3-0.8c-1.5-4.3-1.1-8.9,0.9-13
	c4.1-8.4,14.2-13.4,22.3-16.8c-10.3-3.5-21.4-6.8-26.5-17.5c-1.9-4-2.4-8.6-0.8-12.8c0.2-0.5,0.4-0.9,0.6-1.3
	c0.2-0.4,0.4-0.9,0.7-1.3c0.3-0.4,0.5-0.8,0.8-1.2c0.3-0.4,0.6-0.7,1-1.1c0.3-0.3,0.7-0.7,1.1-1c0.4-0.3,0.8-0.6,1.2-0.9
	c0.4-0.3,0.8-0.5,1.2-0.7c0.4-0.2,0.9-0.4,1.3-0.6c5.5-2.3,11.8-1.2,17.1,1.2c8.2,3.7,14.9,10.8,20.5,17.7
	c-3.9-14.6-4.7-28.6,3-42.3c3.8-6.6,9.6-11.7,17.1-13.5c2.3-0.6,4.6-0.6,6.9-0.4C935.6,89.9,939.9,92.1,942.6,96.6z"/>
<path class="st3" d="M913.8,160.9c6.7-1.9,35.8-7.1,41.3-4.1l-0.1,0.8c-0.9,0.6-1.7,1-2.7,1.3c-3,0.6-6.3,0.5-9.4,0.8
	c-9.4,1.1-18.8,2.6-28.3,2.8c5.5,11.3,9.2,23.2,13.6,34.9L928,198c-0.7,0.1-1,0.4-1.7-0.1c-3.8-2.7-12.4-28.8-14.2-34.9
	c-2.3,2.2-4.7,4.4-7.2,6.3c-4.5,3.4-19.1,16.4-24,16.8l-0.1-0.4c6.3-9,19.5-16,28-23.2c-9.5-4.7-25.8-12.2-33.1-19.2l-0.2-0.7
	c5.1,0.3,31.5,14.5,35.7,18.4c2.3-11.5,4.7-22.9,7.2-34.4c1-4.6,1.7-10,3.7-14.3c0.6-0.4,1.1-0.6,1.8-0.8
	C925.2,118.2,916.2,152.6,913.8,160.9z"/>
<path class="st0" d="M237.4,71.8c3.2,4.9,4.1,11.2,2.8,16.8c-2.3,10.1-9,14.5-17.1,19.7c10.7-3.4,22.3-7.1,33.1-1.6
	c4.7,2.4,8.5,6.4,10,11.5c1.3,4.2,0.7,8.5-1.5,12.3c-3,5-8.5,8.1-14.1,9.3c-11.3,2.5-23.7-2.5-33.3-7.9c8.1,8.6,14.5,17.2,14,29.6
	c-0.3,7.2-3.3,14.3-8.6,19.2c-4,3.6-9,5.7-14.4,5.4c-4.6-0.3-8.8-2.2-11.9-5.6c-5.9-6.6-6.2-15.7-6.7-23.9c0-1.3,0.1-2.7-0.4-4
	c-9.3,7.9-17.4,18.8-31.1,17.9c-4.4-0.3-8.9-1.8-11.9-5.1c-2.9-3.3-4-7.8-3.5-12.2c0.8-8.4,6.6-15.7,13-20.8c3.7-2.9,7.7-5,12-7
	c-10.1-4-20.1-8.1-24.9-18.7c-1.8-4.1-2.1-8.3-0.5-12.5c2-5.3,6.3-9.4,11.6-11.5c7.9-3.2,16.8-2.1,24.5,1.3c7.7,3.5,13,8.8,18,15.4
	c0.1-10.5,3.5-21,11.3-28.5c4.3-4.2,10.1-7,16.2-6.8c0.4,0,0.8,0,1.2,0.1C230.3,65.1,234.4,67.3,237.4,71.8z"/>
<path class="st3" d="M206.3,109.9c-0.8,0.1-1.5,0.3-2.3,0.4c2.6-4.1,12.9-24,15.9-24.9c0.1,0,0.3,0,0.4-0.1
	C219.4,90.7,210.4,106,206.3,109.9z"/>
<path class="st3" d="M206.9,123c0,1.3-0.7,2.3-1.7,3.1c-1.4,1.1-2.8,1.2-4.5,1.2c-1.6-1.1-3-2.2-3.3-4.3c-0.2-1.2,0.3-2.4,1.2-3.2
	c1.6-1.6,3.4-1.4,5.5-1.3C205.6,119.7,207,120.9,206.9,123z"/>
<path class="st3" d="M209.1,161.8c-0.8,1-0.3,0.7-1.3,1.1c-1.3-4.2-5.3-24.7-3.7-28l0.8-0.5C207.4,139.6,209.9,155.9,209.1,161.8z"
	/>
<path class="st3" d="M246.3,119.5l-0.2,0.9c-4.5,2.1-27.6,0.8-33.6,0.6l-0.7-0.4c3-2.2,28.6-2.2,33.6-2L246.3,119.5z"/>
<path class="st3" d="M196.4,116.5l-0.1,0.7c-1,0.2-0.9,0.2-1.9-0.1c-5.6-3.2-11.3-6.2-17.1-9.1c-4-2-9.6-3.7-13-6.5l0.2-0.8
	c0.8-0.5,1.2-0.8,2.2-0.8C175,103.7,190.5,110,196.4,116.5z"/>
<path class="st3" d="M164.4,149.2c-0.7,0.3-1.3,0.4-2.1,0.5c1.8-6.4,16.5-14.1,22.6-17.5c2.9-1.6,6.7-4.1,10.1-4.2
	C193,129.8,166.1,148.4,164.4,149.2z"/>
<path class="st0" d="M158.5,534.9c5.8,7.4,5,19.4,3.7,28.1c-2.1,14.3-8.1,28.4-15.6,40.7c9.7-9.5,19.2-15,33.1-14.8
	c9.4,0.1,20,3.1,26.5,10.1c3.5,3.7,5.6,8.5,5.2,13.6c-0.4,5.2-3.5,9.6-7.4,12.8c-10.3,8.4-27.1,12.1-40.1,10.7c-3-0.4-6-0.9-8.9-1.7
	c10,7.9,21.3,20.9,22.7,34.1c0.6,5.6-0.4,11-4,15.5c-0.2,0.3-0.4,0.5-0.6,0.8c-0.2,0.2-0.4,0.5-0.7,0.7c-0.2,0.2-0.5,0.5-0.7,0.7
	c-0.2,0.2-0.5,0.4-0.7,0.6c-0.3,0.2-0.5,0.4-0.8,0.6c-0.3,0.2-0.5,0.4-0.8,0.6c-0.3,0.2-0.5,0.4-0.8,0.5c-0.3,0.2-0.6,0.3-0.9,0.5
	c-0.3,0.2-0.6,0.3-0.9,0.4c-0.3,0.1-0.6,0.3-0.9,0.4c-0.3,0.1-0.6,0.2-0.9,0.3s-0.6,0.2-0.9,0.3c-0.3,0.1-0.6,0.2-0.9,0.3
	s-0.6,0.1-1,0.2c-0.3,0.1-0.6,0.1-1,0.2c-0.3,0-0.6,0.1-1,0.1c-7.2,0.6-14.1-2.5-19.4-7.1c-10.1-8.8-15.1-21.6-17.1-34.5l-0.3-1.3
	c-0.9,0.2-1.1,0.9-1.6,1.7c-2,2.9-3.5,6.2-5.4,9.1c-5.4,8.1-13.8,16-23.6,18.1c-5.7,1.2-11.8-0.2-16.6-3.4c-4.6-3.1-8.2-8-9.1-13.5
	c-1.1-6.5,1.4-13.3,5.3-18.4c6.6-8.7,16.9-12.2,27.1-14.9c-13.1-1.4-26.5-6-35.1-16.6c-4.1-5.1-6.6-11.5-5.8-18.1
	c0.7-5.1,3.1-9.8,7.4-12.8c4.4-3.1,10-3.8,15.2-2.7c15.4,3.2,26.3,16.7,35.1,28.7c-5.6-20.1-7.1-40.6,3.5-59.5
	c4.4-7.8,11.1-14.1,19.9-16.6c1-0.3,2-0.5,3-0.6c1-0.1,2.1-0.2,3.1-0.2C150.9,529.3,155.3,530.7,158.5,534.9z"/>
<path class="st3" d="M134,587.9c-2.7,11.2-4.9,22.6-6.6,34c16.5-4.8,37-12,54.1-10.6c-6,1.9-12.2,2.8-18.3,4.2
	c-10.9,2.4-22.5,5.2-33.1,8.8l16.1,26.9c3.2,5.3,6.6,10.4,9,16.2c-9.8-8.9-16.3-21.9-22.7-33.4c-1.7-3.1-3.4-6.6-5.4-9.5
	c-2.4,1.5-4.5,3.1-6.6,5c-9.7,9.7-20.5,20.9-32.3,28.2c5.5-8.9,26.4-25,35.3-34.2c-5.7-3-44.7-22.4-46-25.2
	c7.5-0.7,38.8,18.4,47.7,22.9c1.1-9.1,8.7-52.9,14.3-57.4C139.5,570.2,135.5,581.4,134,587.9z"/>
<path class="st0" d="M974.7,668.4c3.7,5,5.1,11.7,4,17.8c-2.3,13.1-13.7,24.6-24.3,31.8c-5.5,3.7-11.3,6.4-17.2,9.2
	c13.2,1.9,26.6,6.3,35,17.4c4.8,6.3,7.1,14.1,6,22.1c-0.9,6-3.7,11.7-8.6,15.3c-5.1,3.8-11.7,4.7-17.8,3.7
	c-14.2-2.3-24.6-12.6-33.8-22.8c3.4,12.7,5.4,28.4-1.3,40.3c-2.7,4.8-6.8,8.5-12.2,10c-5.1,1.4-11,0.8-15.6-1.9
	c-5.3-3.1-8.4-8.3-9.9-14.1c-2.9-11.5-0.1-27,4.7-37.6l3.4-7.2c-8.8,10.4-21.8,18.5-35.6,19.6c-6.5,0.5-13.3-0.8-18.4-5.3
	c-0.2-0.2-0.5-0.4-0.7-0.7c-0.2-0.2-0.5-0.5-0.7-0.7c-0.2-0.2-0.4-0.5-0.6-0.8s-0.4-0.5-0.6-0.8c-0.2-0.3-0.4-0.5-0.6-0.8
	c-0.2-0.3-0.4-0.6-0.5-0.8c-0.2-0.3-0.3-0.6-0.5-0.9c-0.2-0.3-0.3-0.6-0.4-0.9c-0.1-0.3-0.3-0.6-0.4-0.9s-0.2-0.6-0.3-0.9
	c-0.1-0.3-0.2-0.6-0.3-0.9s-0.2-0.6-0.2-1c-0.1-0.3-0.1-0.6-0.2-1c-0.1-0.3-0.1-0.7-0.1-1c0-0.3-0.1-0.7-0.1-1c0-0.3,0-0.7,0-1
	c-0.1-6.4,3.2-12.4,7.7-16.7c8.7-8.4,21.8-11.5,33.5-11.3c2.7,0.1,5.3,0.3,8,0.7c-10.1-7.5-22-16.9-24-30.1c-1-6.4,0.4-13,4.3-18.2
	c3.7-5,9.7-8.6,15.9-9.4c5.8-0.7,11.6,1.4,16,5c10.9,8.9,14.1,24.2,16,37.4c5.5-19.3,15-33.9,32.8-43.9c6.9-3.8,15-6.5,23-5.9
	C965.8,661.5,971,663.4,974.7,668.4z"/>
<path class="st3" d="M905,733.7c9.1,3.1,39.9,13.6,45.1,20.7l-0.7,0.4l0.8,0l-1-1.4l-0.2,1.3c-6-2.1-11.5-5.3-17.3-7.7
	c-5.7-2.4-11.4-4.9-17.2-7.2c-3.8-1.5-7.7-2.7-11.4-4.4c0.2,9.5-0.3,40.3-4.3,47.3c-1.1,0-0.7,0.2-1.4-0.5
	c-0.4-15.5,4-30.7,2.8-46.4l-9.9,2.6c-4.4,1.1-33.5,10.1-34.8,10.1l-0.4-0.7c1.3-2.5,4.7-3.3,7.3-4.1c5.6-1.8,11.1-4,16.7-5.5
	c6.6-1.9,13.5-3.2,20.1-5.3c-9.3-13.4-19.9-26.7-27.3-41.3l0.2-0.7c1.4,0.1,1.8,0.4,2.8,1.5c4.3,4.7,7.4,10.9,10.9,16.2
	c5.4,8.1,11,15.9,16.4,24c10.8-9.4,21-19.6,31.1-29.7c4.7-4.8,9.3-9.8,14.3-14.3c0.9-0.8,1.7-1.6,2.9-2
	C949.1,694.1,912.4,726.5,905,733.7z"/>
<path class="st0" d="M756.6,881c-4.8,5.9-8.9,13.1-14.1,18.6c-6.9,10.5-13.1,21.6-20.1,32c0.8,1,1.1,1.5,2.4,1.6
	c0.8,0.1,2-0.4,2.7-0.7c1.4,0.9,2.7,1.1,4.3,1.4c20,3.6,40.5,5.5,60.6,8.1c4.9,0.6,18.6,3.4,22.3,2.8l0.5-0.8c0,0.4,0.4,0.8,0.6,1.2
	c1.3,0.2,2,0.5,3.3-0.1c2.1-4.7,1-13.1,0.9-18.3c1.2,2.5,1.8,5.1,3.6,7.2c0.5,2.9,1.2,11.3,3.4,12.9c0.7-0.7,0.5-0.3,0.7-0.9
	c0.4,1.4,0.9,1.7,1.9,2.7c2.9,0.1,3.6-1.9,4.7-4.2c1.9-4.2,3.5-8.6,5.4-12.8c8.3-17.9,19.7-36.6,35.2-48.9c-3.1,5.9-6,12.3-9.7,17.8
	c-6.6,15.1-14,31.6-17.4,47.8c0.2,0,0.4,0,0.6,0c5.4-0.8,17.4-16.7,25.6-19.4c-0.7,4.1-18.9,17.7-17.6,23.9c1.1,0.5,1.8,0.4,3,0.3
	c11.2,1.9,22.4,4.7,33.5,7.3c23.7,5.6,48.2,11.5,70.4,21.9c-21.9-0.3-43.9-1.7-65.8-2c-60.4-1.1-120.7,0.1-181,3.5
	c-70.6,3.8-141.1,13.4-211.8,14.5c-102.8,1.5-205.1-12-307.4-20.1c-32.5-2.5-64.9-4.4-97.4-5.9c-16.5-0.7-33.5-0.1-49.9-2.1
	c9.8-6.3,44.8-16.7,57.2-20c5.1-1.3,10.2-2.2,15.3-3.6c1.1,0.1,1.9,0.2,2.9-0.1c0.8-0.3,0.5-0.2,0.9-1.1c-1.5-4.1-8.8-8-12.3-10.1
	c4.9,1.5,10.5,3,15,5.3c2.2,1.1,3.9,2.7,6.2,3.6c0.9-0.7,1.1-0.8,1.2-2c0.7-7.4-21.8-32.2-27.7-38.9c11.7,6.3,24.1,16.5,33.2,26.1
	c3.6,3.8,7.1,9.2,11.2,12.2c1,0.7,0.5,0.6,1.6,0.4l1-2.1c8.9-0.2,22-3.5,31.1-5.2c7.4-1.3,15.9-2,23-4.3c0.9,0.8,1,0.7,2.1,0.9
	c1.4-0.6,1.5-0.7,2.3-1.9c0.4-4.2-8.1-16.8-11-20.5c-2-2.6-7.5-7.4-8.1-10.3c1,0.2,2,0.4,3,0.6c0.2,0.2,0.4,0.3,0.7,0.5
	c2.8,2,4.8,5.1,7.9,6.6l1.3-0.5c4.4,3.6,16.9,22.9,18.8,23.7c0.3,0.1,0.8,0,1.1,0c0.7-0.4,1.4-0.8,2-1.3c5-0.3,10.2-1.5,15.2-2.2
	c11.9-1.7,23.8-3.5,35.9-4.1c-15.7,8.7-33.9,18.1-43,34.4c15.5,11.1,43.6,20.8,62.5,22c28,1.7,53.4-5.9,78.9-16.7
	c10.3-4.4,20.9-9,29.3-16.5c-4.4-7.9-12-13.2-19.3-18.2c1.4-4.2,2.9-8.3,4.7-12.4c1.8,0.6,90.3,5.4,95.3,4.9
	c6,7.7,10.4,16.4,16.7,24c-16.2,6.2-42.5,18.1-50.1,34.7l-0.2,0.4c29,16.7,75.6,15.6,107.4,7.1c20.1-5.4,62.5-19.3,74.4-36.4
	c-9.6-8.9-20-16.7-29.5-25.9c30,3.4,60.4,3.7,90.5,7.3c0.6,0.2,1,0.4,1.7,0.5c1.1,0.3,1.7,0.4,2.6-0.3c1.1-11.8,2.9-23.6,4.5-35.4
	c1.4,2.4,2,5,2.3,7.7c-0.4,7.2-2.2,18.8,1.9,24.9c-0.1,2-0.2,1.9,1,3.5c1.1,0.3,1.4,0.4,2.4-0.4c1.9-1.7,9.1-18.4,11.4-22.2
	c10.4-17.3,29-37.8,46.9-47.3C768.3,868.5,761.9,874.4,756.6,881z"/>
<linearGradient id="SVGID_1_" gradientUnits="userSpaceOnUse" x1="306.4108" y1="105.1263" x2="299.7961" y2="106.0379" gradientTransform="matrix(-1 0 0 -1 1029.1147 1021.8898)">
	<stop  offset="0" style="stop-color:#B5B5FF"/>
	<stop  offset="1" style="stop-color:#C9D2FF"/>
</linearGradient>
<path class="st4" d="M722.4,931.6c-0.2-1.1-0.4-2.1-0.3-3.2c0.1-1.6,0.8-3.1,1.6-4.5c1.7-3,14.7-22.6,16.6-24
	c0.9-0.7,1.2-0.4,2.2-0.3C735.7,910.1,729.5,921.2,722.4,931.6z"/>
<path class="st3" d="M848,948.5c-0.8-4.4,0.3-8.4,1.4-12.6c1.8-7,10-31.7,16-35.2C858.8,915.8,851.4,932.3,848,948.5z"/>
<path d="M567.8,130.7c3.9,0.2,7.8,0.4,11.8,0.8c3.9,0.4,7.8,0.8,11.7,1.4c3.9,0.6,7.8,1.2,11.6,2c3.9,0.8,7.7,1.6,11.5,2.5
	c3.8,0.9,7.6,2,11.4,3.1c3.8,1.1,7.5,2.4,11.2,3.7s7.4,2.7,11,4.2c7.9-10.2,15-21.2,23-31.3c23.6-29.6,54.2-53.3,92.8-58.3
	c23.1-3,47.1-1.3,69.9,3.5c5.6,1.2,11.8,2.4,17,4.9c-5.8,4.8-13.3,8.3-19.9,12c-7.3,4.1-14.4,8.4-21.5,12.9
	c-38.7,24.3-83.7,57.4-112.3,93.3c5.5,6.5,10.8,13.4,15.2,20.6c2.2,3.6,3.8,8.3,6.5,11.5c3.6,4.3,8.5,7.8,12.7,11.5
	c7.1,6.3,13.9,13.3,20.1,20.5c39.9,46.5,65.1,107.8,59.7,169.6c-1.2,13.6-3.7,29.5-7.1,42.7c7,21.5,4.3,44.1-5.9,64.2
	c-4.1,8.1-9.7,15.3-16.1,21.7c-0.4,18.6-1.9,37.2-2.5,55.8c-0.6,19.8-0.3,39.9-1.8,59.6c-0.1,1.8-0.1,4.8-1.5,6.1
	c-6.1,5.8-27.1,5.5-35,4.9c-15.1-1-30.5-3.8-45-8.1c-5.9-1.8-11.7-4.5-17.7-5.9c-7.7-1.8-15.8-2.6-23.6-4
	c-13.2-2.4-26.3-5.2-39.3-8.5c-8.2-2.1-16.2-4.6-24.2-7.3c-4.3-1.5-8.5-3.6-12.9-4.7c-1.4-0.4-2.6-0.6-4-0.4l-0.3,0.6
	c2.5,1.8,5.6,2.7,8.3,4.4c6.5,4,21.7,15.5,23,22.9c0.4,2.3-0.2,4.6-1.6,6.4c-1.5,2-3.7,3.1-5.9,4.2c26.5,34.5,46.2,74.4,60.9,115.2
	c5,1,9.3,2.2,12.2,6.8c4.1,6.6,13.2,37.2,11.5,44.8c-0.7,3.2-3.6,5.3-5.1,8.1c-6.5,12.8-7.8,19.5-21.3,27.3
	c-11,6.4-24.7,7.6-36.9,4.2c-13.3-3.7-22.4-11.9-29.6-23.3c-5.8,0.5-10.1,1.1-14.8-2.8c-6.5-5.4-9.5-14.1-10-22.3
	c-0.5-7.7,1-16.3,6.2-22.2c3.3-3.7,7.5-5.8,11.9-7.7c-7.9-26.3-16.7-52.3-24.2-78.7c-3,18.6-6.4,37.1-9.8,55.6
	c-1.7,9.1-3,21.5-6.7,29.9c-0.1,0.3-0.2,0.5-0.4,0.8c-0.2,0.2-0.3,0.5-0.5,0.7c-0.2,0.2-0.4,0.4-0.6,0.6c-0.2,0.2-0.4,0.4-0.7,0.5
	c-2.6,1.8-6.5,2.3-7.2,5.8c-0.1,0.7-0.2,1.4-0.2,2c-0.3,3.2-2.4,5-4.5,7.1c19.5,31.9,39.6,57,65.8,83.6c4.4,4.4,8.8,10.3,14,13.7
	c9.4,9.2,19.9,17,29.5,25.9c-11.9,17.1-54.2,31.1-74.4,36.4c-31.7,8.5-78.4,9.6-107.4-7.1l0.2-0.4c7.6-16.6,33.9-28.5,50.1-34.7
	c-6.3-7.6-10.7-16.3-16.7-24c-5,0.5-93.4-4.3-95.3-4.9c-1.8,4.1-3.3,8.2-4.7,12.4c7.3,5,14.9,10.2,19.3,18.2
	c-8.5,7.5-19,12.1-29.3,16.5c-25.4,10.8-50.9,18.4-78.9,16.7c-18.9-1.1-47-10.9-62.5-22c9.1-16.3,27.3-25.8,43-34.4
	c7.4-2.7,14.8-5.5,22.4-7.6c5.9-19.3,13.1-37.2,22.6-55.1c4.8-9,10.3-17.7,14.9-26.8c-13.6,0.9-25.9-0.9-36.5-10.3
	c-4.8-4.3-6.5-8.9-9.5-14.3c-5.7-10.2-11-12.9-11.7-25.9c-0.6-9.7,2.5-18.9,9-26.1c5.7-6.3,12.1-8.5,20.1-10.1
	c5.1-10.8,11.5-20.8,17.2-31.2c11.6-21.3,23.5-42.5,35.8-63.5c6.1-10.6,11-23.2,18.8-32.7c4.2-5.1,10.4-8.2,16.3-11
	c-64.9-21.3-125.4-45.6-176.2-92.9c-9.9-9.2-25.5-26.5-31.3-38.1c-0.7-1.4-1.5-3.3-1.1-4.9c2.2-8.6,45.4-53.5,54.8-63.3
	c5.6-5.9,12-11.6,16.8-18.2c5.5-7.6,11.2-21.3,14.3-30.3c-20.7-12.1-52.1-31-58.6-55.8c-2.4-9-0.2-17.4,4.5-25.3
	c14.5-24.2,76.9-66.5,104-73.2c3.8-0.9,7.6-1.7,11.4-2.3c10.7-10.8,23.3-19.7,36.4-27.5c26.8-15.9,54.5-26.2,85-32.4
	c6.7-1.4,13.5-2.6,20.3-3.5c5.4-0.7,11-1.1,16.4-2.1c13.1-26.3,35.8-63.7,59.6-81.1c1.5-1.1,3-2.1,4.6-3c1.6-1,3.2-1.8,4.8-2.7
	c1.6-0.8,3.3-1.6,5-2.3c1.7-0.7,3.4-1.3,5.2-1.9c19-6.3,40.4-6.7,60.2-5.2c2.9,0.2,8.7,0.1,11,1.8c0.6,0.4,0.6,0.5,1,1
	c-0.6,1.2-1.1,1.5-2.2,2.3c-4.3,3.2-9,6-13.4,9c-9.1,6.3-17.9,13-26.3,20.2c-18.4,16.1-36.3,35.1-50.5,55
	C560,130.4,563.9,130.5,567.8,130.7z"/>
<path class="st0" d="M672.9,427.4c-1.3,2.3-2.7,4.6-3.8,7.1c-1.7-1.8-3.3-3-5.3-4.3l3.5-6.5L672.9,427.4z"/>
<path class="st3" d="M286.5,942.5c0.1,1.3-0.5,2.5-1.3,3.4c-1.7,1.7-4,1.8-6.3,1.5c-0.2,0-0.4-0.1-0.6-0.1c-1.6-1.3-3-2.6-3.2-4.8
	c-0.1-1.3,0.5-2.4,1.4-3.2c1.9-1.8,3.9-2,6.4-1.8c0.3,0,0.7,0.1,1,0.1C285.3,938.9,286.4,940.4,286.5,942.5z"/>
<path class="st3" d="M709,211.1l-5-3.6c-5.2-3.8-10.4-7.5-15.9-11c1.9-2.3,3.7-4.5,5.8-6.6C700.4,195.2,704.2,204.2,709,211.1z"/>
<path class="st3" d="M535.3,965.6c-0.2,1.6-0.5,2.6-1.8,3.6c-2.1,1.7-5,1.9-7.6,1.9c-2.1-0.7-4-1.3-5-3.4c-0.6-1.2-0.5-2.3,0-3.5
	c0.7-1.7,2.8-3,4.5-3.5c1.5-0.4,3.2-0.3,4.7-0.2C532.6,961.9,534.4,962.8,535.3,965.6z"/>
<path class="st3" d="M302,941.4c0.8,1.3,1.3,3.2,1,4.7c0,0.2-0.1,0.4-0.2,0.6c-0.1,0.2-0.1,0.4-0.2,0.6c-0.1,0.2-0.2,0.4-0.3,0.6
	c-0.1,0.2-0.2,0.4-0.4,0.6c-0.1,0.2-0.3,0.4-0.4,0.5c-0.1,0.2-0.3,0.3-0.5,0.5c-0.2,0.2-0.3,0.3-0.5,0.4c-0.2,0.1-0.4,0.3-0.5,0.4
	c-1.2,0.7-2.6,0.8-3.9,1c-2.6-1.2-4.8-2.3-5.7-5.2c-0.7-2.1-0.7-4.6-0.9-6.8c2.3-0.6,4.5-1.2,7-1.3
	C298.8,938.7,300.7,939.3,302,941.4z"/>
<path class="st0" d="M691.1,446.6c-5.6-3.4-12.1-5.9-18-8.6c1.3-2.7,2.6-5.5,3.9-8.3c6.3,3.5,12.1,7.7,18.1,11.6
	C693.8,443,692.5,445.2,691.1,446.6z"/>
<path class="st3" d="M607.1,699.1l-0.6,0.3c0.5,0.4,0.3,0.3,0.7,0.5c-1.3,1.4-3.6,1.7-5.4,1.8c-5-8.6-10-17-16.2-24.7l5.6-1.8
	C596.8,682.8,602.9,690.8,607.1,699.1z"/>
<path class="st3" d="M631.8,742.6l-6.8,1.2l-0.1,0.1l-0.6-0.7l0,0.5c-2.1-1.8-5.2-10.6-6.6-13.5c-4.1-8.4-8.8-16.5-13.2-24.8l5.5-2
	C617.4,715.2,626.3,730,631.8,742.6z"/>
<path class="st3" d="M651.6,789c-2.8,0.4-5.7,0.8-8.5,1.2c-1.9-1.6-3-8-3.8-10.5c-3.5-10.7-8.4-21-12.9-31.3
	c2.6-0.5,5.1-0.9,7.7-1.3C640.8,760.5,647.9,774.4,651.6,789z"/>
<path class="st0" d="M658.4,428.3c-11.3-8.7-23.3-15.8-35.3-23.3c-2.9-1.8-7-5.6-10.2-6.1c-1.2-3.9-2.5-7.7-4.6-11.2
	c18.7,9.5,36.6,21.8,54.4,32.9C661.2,423.1,659.8,425.7,658.4,428.3z"/>
<path class="st0" d="M605.6,392.5c-6.2-2.9-11.8-7.4-17.7-10.9c-13.8-8.3-39.8-24.2-54.3-28.6c-6.2-1.9-12.7-2.5-19.1-3.5
	c6.6-2.6,17-3.4,23.5-0.5c13.7,6,27.2,13.7,40.2,21c8,4.5,16.2,8.9,23.8,14C603.3,386.8,604.6,389.5,605.6,392.5z"/>
<path class="st3" d="M772.4,596.1c-5.4,1-10.5,1.6-16,1.6c5.2-9.4,4.5-25.5,5.2-36.4c4.8-1.8,9-4.1,13.3-7
	C774.2,568.1,773.6,582.1,772.4,596.1z"/>
<path class="st3" d="M599.1,664.1c-5.8,2.1-12.2,2.9-18.1,4.4c-11.9,3-24.4,6.7-35.3,12.5c-3.8,2-7.1,4.4-10.7,6.6
	c-2.6-1.9-2.9-3.8-3.5-6.8c12.9-10.9,34.9-16.8,51.4-20.3c3.6-0.8,7.8-2,11.5-1.9C596.2,660.2,597.6,661.9,599.1,664.1z"/>
<path class="st0" d="M240.1,494c2.9,6,6.6,11.5,9.8,17.3c-4.2-3.7-8-7.7-11.9-11.7c-8.5-8.9-16.5-17.4-23.5-27.6
	c4.6-5.8,24.5-31.5,28.8-34.7C236.4,457.2,230.4,473.8,240.1,494z"/>
<path class="st3" d="M326.7,812.1c9.8,2.8,20.1,2.3,29.8-0.4c-2.3,2.6-4.4,5.2-6.4,8.1c-1.5,2-3,4.1-4.7,6c-11.7,1.8-24,1.8-34-5.4
	c-6.4-4.6-10.9-11.2-12-19.1c-0.5-3.5-0.6-7.5,0.3-10.9C305.8,801.1,314.8,808.7,326.7,812.1z"/>
<path class="st3" d="M597.2,702.4c-10.2,2.7-20,6-29.5,10.6l-4.3,2.4c-2.7-8.5-6.2-17.3-7-26.2c5.7-3,20.3-9.7,26.3-11.1
	C588.1,685.7,592.8,694.2,597.2,702.4z"/>
<path class="st3" d="M608.9,856.2c10.2,6.6,20.8,4.9,31.9,2.4c9.8-2.2,20.3-4.7,29.6-8.7c-1.7,3.7-3.5,6.9-6.2,10.1
	c-8.2,9-17.4,14.3-29.8,14.8c-11.6,0.5-21.9-2.9-30.5-10.8c-8.6-8-12.5-21.6-12.7-33.1c-0.1-2.9,0.1-6.3,1.1-9.1
	C595.1,835.2,596.6,848.2,608.9,856.2z"/>
<path class="st3" d="M591.9,656.5c-13.6,0.4-27.1,3.6-39.9,8.3c-7.7,2.8-14.1,6.8-21.3,10.5c-0.2-10.3,1.4-19.2,8.8-27
	c5-5.2,11.8-8.6,19.1-8.8c0.6,0,1.3,0,1.9,0.1C573.4,641.6,582.6,647.2,591.9,656.5z"/>
<path class="st3" d="M244.2,425.9c-6.1,9.7-17.8,21.5-25.4,30.4c-4,4.7-8.6,9.5-11.3,15.1c-0.1,0.2-0.2,0.4-0.3,0.6
	c10.6,20.7,36.5,41,54.1,56.1c7,6,13.7,12.4,20.9,18.1c3.8,3,7.7,5.9,11.7,8.7c2.6,1.8,5.9,3.3,8.2,5.4c-1.9-0.4-3.3-1.2-5-2.2
	c-37-22.1-76-47.4-98.4-85.5c4.4-7.4,44.3-53,50.6-57.2C247.8,418.9,246.2,422.6,244.2,425.9z"/>
<path class="st3" d="M361.7,680.4c-4.6,11.9-9.6,24.2-13.2,36.4c-4.3,14.3-7.1,29.7-9.3,44.5c-5.2-1.7-9.6-3.6-14.1-6.8
	c-2.3-2-4.4-3.9-6.4-6.2l37.8-67.1c3.8-6.8,12.4-25.1,17-29.8C370.7,661.3,365.5,670.8,361.7,680.4z"/>
<path class="st3" d="M401.3,943.9c-7.8,5.4-16.9,9.1-25.7,12.7c-27,11-57.1,19.8-86.4,14.5c-13.8-2.5-27-7.6-39.9-13l-5.7-2.4
	c1.4-1.3,2.7-2.7,4.1-4c8.8,4.6,18,7,27.7,8.9c29.4,5.8,53.4,3.7,81.8-5.1c6.1-1.9,12.3-3.8,18.2-6.3c5.6-2.4,16.2-8.2,21.5-9.2
	C398.4,941.2,399.9,942.5,401.3,943.9z"/>
<path class="st3" d="M628.5,950.1c-5.2,4.7-12.7,8.4-19,11.5c-30.5,15.4-65.6,25.2-99.9,23.4c-14.4-0.7-28.6-2.9-42.4-7.5
	c-1.5-0.7-3-1.3-4.5-2.1c1.8-1.5,3.7-3,5.6-4.5c43.8,11.7,90.1,4.7,131.9-11.5c8.8-3.4,16.9-8.9,25.7-12.2
	C626.8,948.2,628,948.9,628.5,950.1z"/>
<path class="st0" d="M509.6,345.1c-2.2-2.9-13.4-6.5-17.1-8c-28.8-11.5-54.3-20.2-84.2-28.4c-7.9-2.2-16.1-5.1-24.2-6.4
	c-8.9-5.5-15.8-6.4-26.1-5.9l-0.4-0.6c-7.1-1.7-14.4-3.2-21.7-4.1l5.5-5c13.4,1.7,26.5,4.7,39.7,7.7c13.6,3.1,27.3,6.2,40.7,10
	c21.5,6.4,42.7,13.7,63.5,21.9c11.6,4.5,27.1,10.3,38,16C518.7,343.1,514.2,344,509.6,345.1z"/>
<path class="st3" d="M639.2,162.9c-1.3,2.9-2.9,5.6-4.5,8.4c-36.9-8.1-72.7,2.6-103.9,22.6c-4.2,2.6-8.2,5.5-12.1,8.5
	c-3.9,3-7.6,6.2-11.2,9.6c-2.9,2.8-10.6,12.1-13.5,12.7l-1.1-0.4c-0.3-1.6,0.3-2.6,1.2-4c3.1-4.9,7.4-9.4,11.4-13.5
	c20.8-21.7,49.5-39.6,79.1-45.8c9.6-2,19.9-2.5,29.7-1.8C623,159.7,630.7,161.6,639.2,162.9z"/>
<path class="st3" d="M487.3,820.7c1.9,0.5,3,0.5,3.6,2.5c-0.3,1-0.5,1.8-0.4,2.9c1.7-0.1,3.4-2.2,4.6-3.5c10.5-1.8,20.8-4,31.2-5.9
	l0.6,0.7c-0.3,0.7-0.6,1.2-1.1,1.8c-8.7,5.5-29.8,9.4-40.1,9.1c-4.4-0.1-8.8-1.2-13.1-2.1c-8.6-1.9-17.2-3.9-25.7-6.4
	c-23.4-6.9-46.2-15.6-68.8-24.9c-9.1-3.7-18.8-7.1-27.3-12.1c-3.7-2.2-7.1-4.7-9.8-8.2c0.7-2.7,1.3-6.3,2.7-8.7
	C363.4,789.2,455.4,812.4,487.3,820.7z"/>
<path class="st3" d="M537.5,641c-0.9,1.1-2.1,1.9-3.1,2.8c-2.1,2.1-3.5,5.1-4.9,7.7c-3.6,7-4.4,16.6-6.3,24.2
	c-7,28.1-14.1,56.2-19.5,84.6c-1.3,6.8-8.9,54.6-9.9,56.2c-0.2,0.3-0.5,0.5-0.7,0.7l-2.1-0.2c-1.7-0.4-2.9-0.5-4.1-1.7
	c-1.3-8.6,1.1-22.6,2.4-31.4c4.7-32.1,12-62.7,21.8-93.6c5.4-17.1,11.4-34.9,20.6-50.4c1-0.6,1-0.5,2.1-0.6
	C534.7,639.9,536.7,640.2,537.5,641z"/>
<path class="st3" d="M770.9,649.2c-4.4,0.7-8.8,1.5-13.2,1.9c-0.3-11.1,2.6-26.4,0.8-36.7c-0.2-0.9-0.6-2.6-1.2-3.3
	c-0.8-0.8-3.2-1.2-4.3-1.4c-3.8-0.7-7.9-0.7-11.7-1.1c-8-0.7-16-2-23.8-3.8c-34.6-8.2-66.4-23.1-95.6-43.1c0.9-2.1,1.8-4.2,2.8-6.3
	c6.8,4.5,13.4,9.1,20.5,13.2c35.7,20.5,85.9,39.8,127.6,33.3C772.1,617.4,772.2,633.6,770.9,649.2z"/>
<path class="st3" d="M620.1,744.7c-13.1,3-27,6.6-38.6,13.5l-3.5,2.3c-4.7-13.5-9.5-27.3-13.4-41c7.7-3.1,15.2-6.7,23.1-9.4
	c4.2-1.4,8.5-2.2,12.7-3.6C607.2,718.9,614.8,731.7,620.1,744.7z"/>
<path class="st3" d="M381.2,911c2.4-0.2,4.7-0.4,7.1-0.7c-2.2,6.6-5.1,12.9-7.3,19.4l-4,1.5c-20.7,5.2-47.3,3.2-65.8-8
	c-1.1-0.6-2-1.3-3-2.1c1.1-5,7-23.1,10-26.5C336,909.5,358.7,913,381.2,911z"/>
<path class="st3" d="M337.8,766.6c-1.2,4.5-2.2,7.9,0.2,12.3c5.2,9.6,21.1,15.1,30.7,19.1c-4.4,5-7.8,6.4-14.2,8.2
	c-13.7,2.9-25.7,1.7-37.5-6c-7.8-5-12.9-11.4-15.3-20.5c1.5-4.5,9.9-24.3,13.9-26.4C321.7,760.5,329,763.6,337.8,766.6z"/>
<path class="st3" d="M309.7,929c18.3,10.7,47.3,14,67.6,8.2c3.8-1.1,7.3-2.4,10.6-4.6l4.1,3.8c-36.1,19-77.5,28.1-117.8,19
	c-7.5-1.8-15.1-3.7-21.9-7.5c1.4-1.2,2.6-2.5,4.4-2.9c1,0.3,1.6,0.6,2.4,1.3c1.6,1.2,3,1.4,5,1.1c3-0.5,5.1-2.6,7.7-4
	c0.8,2.9,1.3,6,4.2,7.5c2.7,1.4,6.2,0.3,8.8-0.7c0.8-0.3,1.5-0.6,2.3-0.9c3,3.1,5.8,5.7,10.4,5.6c3,0,5.9-1.3,7.9-3.5
	c0.2-0.3,0.4-0.5,0.6-0.8c0.2-0.3,0.4-0.6,0.6-0.9c0.2-0.3,0.3-0.6,0.5-0.9c0.1-0.3,0.3-0.6,0.4-1c0.1-0.3,0.2-0.7,0.2-1
	c0.1-0.3,0.1-0.7,0.1-1s0-0.7,0-1c0-0.3,0-0.7-0.1-1c-0.4-2.8-2-5.8-4.3-7.5c-5.7-4.3-11.9,0.4-17.6-2c-2.9-1.2-5.2-1.6-8.1-0.3
	c-2.8,1.3-4.6,4.8-7.4,5.7l-1.4-0.9c-1.9,0.9-2.2,2.1-2.9,4c-0.9,0.8-1.5,1-2.7,1.2c-1.3-0.7-2.4-1.4-3.6-2.3
	c9.8-7.1,31-17.3,42.9-20.8C303.9,925.2,305.7,926.7,309.7,929z"/>
<path class="st3" d="M691.1,446.6c-3.2,5.6-5.8,11.5-8,17.5c-8.1,22.1-8.7,42.7,1.4,64.2c-13.5-5.8-28.4-13.5-39.8-22.8
	c9.8-22.1,19-45.1,28.4-67.5C679,440.7,685.5,443.2,691.1,446.6z"/>
<path class="st3" d="M621.9,944.3c-2.8,1.5-5.6,2.9-8.5,4.3c-2.9,1.4-5.7,2.7-8.6,3.9c-2.9,1.3-5.8,2.4-8.8,3.6
	c-3,1.1-5.9,2.2-8.9,3.2c-3,1-6,2-9,2.8c-3,0.9-6.1,1.7-9.2,2.5s-6.2,1.5-9.2,2.1c-3.1,0.6-6.2,1.2-9.3,1.7
	c-3.4,0.6-7.8,1.9-11.1,1.7l0.1-0.5c0-0.2,0.1-0.5,0.1-0.7c0.1-0.3,0.1-0.6,0.2-0.9c0.4-2.2-0.5-4.5-1.8-6.2c-2.2-3-5.8-4.9-9.5-5.2
	c-3.2-0.3-7.1,1-9.4,3.2c-1.7,1.6-2.6,3.7-2.5,6c0.1,2.7,1.4,4.2,3.1,6.1c0.2,0.2,0.4,0.5,0.6,0.7c-5.3,0-10.6,0.1-16-0.4
	c-9.7-0.7-21.6-1.3-30.6-4.9c7.9-6.7,25.4-16.3,35.5-18.1c13.4,8.4,36.6,5.8,51.4,2.4c15.2-3.5,32.8-11.2,43.3-23.1
	C609.7,933.9,615.9,939,621.9,944.3z"/>
<path d="M512.7,961.6c0.3,1.2,0.3,2.5-0.4,3.7c-1.1,1.9-3.9,3.1-5.9,3.6c-1.9,0.4-3.8,0.1-5.4-1.1c-1.3-1-2.3-2.3-3.4-3.5
	c-0.6-0.7-0.3-0.5-1.2-0.9c-0.2,0.2-0.3,0.3-0.5,0.5c-1.4,1.3-4.4,2-6.2,2.6c-1.4,0.1-2.7,0.2-3.9-0.8c-1.1-0.8-1.6-1.9-1.9-3.2
	c0.5-1.2,0.6-1.3,1.6-1.9c1.7,0.2,2.6,1.6,4.2,1.7c4.4,0.4,7.9-7.9,18.3-6.7C510.6,957.2,512,958.7,512.7,961.6z"/>
<path class="st3" d="M509,962.3c-0.3,1.3-0.5,1.8-1.7,2.6c-1.2,0.7-2.7,0.6-4,0.6c-1.3-1.1-1.7-1.4-2.3-3.1c0.3-1.3,0.6-2.1,1.8-2.8
	c1.3-0.7,2.5-0.8,3.9-0.8C508,960,508.6,960.7,509,962.3z"/>
<path class="st3" d="M638.9,790.8c-15.9,3.3-30.3,7.3-44.7,15.2l-1.6,0.9l-0.7-0.4c-4-13.9-9-27.6-12.5-41.5
	c12.3-8.2,28.2-13.3,42.8-16C628.2,762.9,634.1,776.4,638.9,790.8z"/>
<path class="st0" d="M748.1,555.8c-0.2-0.1-1.1-0.6-1.2-0.7c-0.1-0.1-0.2-0.3-0.3-0.4c-0.7-0.8-1-1.1-1.4-2.1l1.9-0.8
	c12.6-2.6,23.3-9.3,30.5-20.1c9.6-14.4,15.8-41.7,12.3-58.6c-2.6-12.8-10.1-27.4-21.3-34.7c-4.5-2.9-9.5-4-14.7-2.7
	c-12.2,2.8-23,14.7-29.2,25c-9.8,16.4-14,39.8-9.3,58.5c2.3,9,7.9,18.1,16.1,22.7c6.4,3.6,14.2,3.6,21,1.5
	c13.9-4.2,22.7-15.6,30.5-27.2c-3.7,12.4-9.7,21.8-21.4,28.1c-8.7,4.7-19.4,6.6-29,3.6c-8.9-2.8-14.7-9.5-18.8-17.6
	c-7.9-15.5-7.1-35.3-1.7-51.5c5.6-17.1,17.1-36.4,33.7-44.7c7.2-3.6,15.5-5.3,23.3-2.6c11.9,4.2,20.6,15.7,25.6,26.8
	c7.9,17.4,7.1,37.8,0.3,55.4c-6.1,15.8-18.9,32.7-34.8,39.5c-2,0.9-4.1,1.5-6.2,2.1c-2.1,0.5-4.3,0.9-6.5,1.1L748.1,555.8z"/>
<path class="st3" d="M600.3,925.2c-22.1,19.1-47.2,25.5-76,23.3l-0.5,0l-8.8-1.2c-3.6-6.6-8.6-12.4-12.2-19.1
	c26.4,1.8,54.5-5.1,74.8-22.7c0.6-0.5,1.2-1,1.7-1.6C585.7,911.5,593.7,917.7,600.3,925.2z"/>
<path class="st3" d="M543.3,862c-14.6,12.2-37.8,20.1-56.8,18.4c-1.9-0.2-3.8-0.5-5.7-0.8c-1.3-0.2-3.3-0.2-4.1-1.4
	c-4.1-6-9.4-26.5-11.3-34.1c14.8,5.4,28.4,5.4,42.8-1.3c1.4-0.7,2.8-1.4,4.2-2.1s2.7-1.6,4-2.5c1.3-0.9,2.6-1.8,3.8-2.8
	c1.2-1,2.4-2,3.6-3C530,842.3,537.5,851.8,543.3,862z"/>
<path class="st3" d="M383.6,831c10.7,4.3,19.7,4.8,30.9,2.5c-4,10.1-7.6,20.3-10.9,30.6c-3.6,0.8-7.1,1.4-10.8,1.8
	c-16.5,0.9-36.3-1.3-49.2-12.9c-1.4-1.3-2.7-2.9-3.9-4.4c3.8-7.6,17.1-29,23.3-34.4C366.7,823.1,375.1,827.6,383.6,831z"/>
<path class="st3" d="M496.6,391.3c4,8.9,2.1,21-1.5,29.7c-4.2,10.3-12.7,22-23.3,26.4c-3.6,1.5-7,1.6-10.8,1.1
	c-3.8-1.4-6.3-3.8-8.1-7.5c-4.1-8.6-2.1-20.2,1.2-28.7c4.3-11.3,12.6-22.7,24-27.5c3.3-1.4,6.3-2,9.8-1.7
	C492.2,384.8,494.7,387.1,496.6,391.3z"/>
<path class="st3" d="M385.7,871.1c5.5,0,10.9-0.5,16.3-1.6c-3.9,11.8-7.6,23.7-11.9,35.4c-1.8,0.3-3.6,0.7-5.4,1
	c-20.8,2.5-44.1,0.2-61.1-13.2c-1.2-1-2.4-2-3.6-3c2-7.2,12.3-31.4,16.9-36.3C350.5,866.8,366.8,871.2,385.7,871.1z"/>
<path class="st0" d="M471.8,153c-20.6,12-38.7,32.8-52.5,51.9c-21.5-3.3-42.8-4.9-64.5-3.9l-3.2,0.2c0-0.9,0.5-1.1,1.2-1.7
	c5.6-5.4,12.4-9.7,19-13.9c28.3-18.1,59.1-29.7,91.9-36.5c7-1.5,15.3-3.6,22.4-3.2c0.3,0,0.5,0,0.8,0.1
	C481.8,148.3,476.6,150.2,471.8,153z"/>
<path class="st3" d="M575.2,900.5c-18.1,16.1-45.1,24.1-69.1,23.4l-6.8-0.6c-8.2-12.5-14.6-25.3-20.3-39.1c6,0.8,11.9,1.5,17.9,1.2
	c16.7-0.8,35.4-8.4,48.6-18.5l0.7-0.6C555.4,878.4,564.8,889.5,575.2,900.5z"/>
<path class="st3" d="M758.5,427.4c-11.8,0.9-22.8,8.5-30.4,17.2c-14.8,16.9-24,42.1-22.4,64.6c0.9,12.6,6.2,27,16,35.3
	c7.4,6.3,16,8,25.5,7.3l-1.9,0.8c0.4,1,0.7,1.3,1.4,2.1c0.1,0.1,0.1,0.3,0.3,0.4c0.1,0.1,1.1,0.6,1.2,0.7l-0.4,0.5
	c-9.8,0.5-18.9-0.3-28.2-3.6c-14.2-5-23.9-14.5-30.2-28c-8.9-18.9-8.3-39.4-1.2-58.9c5.5-15.2,16-31.8,31.2-38.8
	c13.9-6.4,29.5-4.7,43.5,0.3C761.3,427.3,759.9,427.3,758.5,427.4z"/>
<path class="st3" d="M643.7,493.1c-13.1,32.6-25.3,65.9-41.1,97.3c8.4,14.7,45.1,35.6,61.1,43.3c10.3,4.9,21.1,9.8,32,13.4
	c20.4,6.8,54.7,14.3,75.2,7.1c-0.1,3.4-0.3,6.8-0.5,10.1c-8.4,3.4-18.7,3.4-27.6,2.9c-39.9-2.3-85.4-19.6-117.3-43.7
	c-12.6-9.5-24-21-34.4-32.8c12.9-28.3,27.2-55.9,39.8-84.3c6.4-14.4,13-28.8,19.1-43.3c4.6-10.9,8.5-22.2,13.8-32.8
	c2,1.3,3.7,2.6,5.3,4.3C660.6,454,651.7,473.4,643.7,493.1z"/>
<path class="st3" d="M664.6,797.8c4.3,6.3,12.7,33.2,11.2,40.5c-0.5,2.6-3.2,4.6-5.4,5.8c-7.5,4.3-36.9,11.9-45.7,12.3
	c-1.6,0.1-3.1-0.2-4.7-0.6c-7.3-3.4-11.9-7.8-14.7-15.5c-3.3-9.1-5.5-19.8-6.2-29.6c17.1-8.4,36.5-15.5,55.7-15.5
	C658.4,795.6,661.4,796.2,664.6,797.8z"/>
<path d="M669.2,835.2c-0.7,2.1-2.3,3-4.2,3.9c-7.3,3.4-39.5,11.8-46.4,9.1c-0.2-0.1-0.4-0.2-0.6-0.3c-6.8-7.4-9.7-21.8-9.5-31.6
	c10.4-11.5,38.8-11.6,53.3-16.1C666.1,808.8,672.3,825.6,669.2,835.2z"/>
<path class="st3" d="M665.7,833.7c-6.6,2.4-40.2,12.1-45.1,9.8c-0.5-0.2-1-0.6-1.4-0.9c-2.8-4.9-8.1-18.2-6.5-23.5
	c0.6-1.9,2.9-3.1,4.6-3.9c13.6-6.5,28.8-6.5,42.9-10.7C663.2,813.8,665.8,823.8,665.7,833.7z"/>
<path class="st3" d="M588.2,358.2c10.7,5.8,21,12.1,31.5,18.3c19.2,11.2,37.4,23.3,55.5,36c8.9,6.3,18.4,12.5,26.4,20l-3,3.9
	c-17.8-12.7-36.2-24.4-54.7-36.1c-33.5-21.1-67.9-41.5-103.6-58.6c-79-37.9-209.2-81.5-296.5-61.9c-5.2,1.2-10.5,2.7-15.4,4.8
	c2.6-5.3,4.2-7.9,10.1-9.8c18.4-6.1,39.1-6.4,58.3-6.3c5.1,0,10.6-0.2,15.7,0.3C409.4,275.9,503.2,311.9,588.2,358.2z"/>
<path class="st3" d="M786.1,407.3c1.4-24.8-3.2-50.3-11.1-73.8c-12.3-36.9-35.2-78-65.9-102.4c-4.3-3.4-9.1-7.4-14.1-9.8
	c-2.5-3.1-4.9-6.5-7.8-9.3c-0.6-0.6-1.4-0.8-1.9-1.3c-0.2-0.2-0.4-0.5-0.6-0.8c1,5.4,4.6,10.8,7,15.7c1.9,4,3.6,8.1,5.2,12.2
	c11.2,29,17.9,71,14.2,101.8c-1.8-1.2-3.6-2.3-5.2-3.6c1.5-10.2,0.8-21.3,0-31.5c-2.7-32.7-9.8-68.3-28.5-95.8l5.7-7.1
	c16,10.5,32.1,22.1,46.1,35.1c35.4,33,62.1,78.9,72,126.5c4.5,21.7,4.7,43.7,1.9,65.6C798.1,421,792.1,414.2,786.1,407.3z"/>
<path class="st3" d="M635.1,45.9c-27.4,19.5-49.2,39.7-70.9,65.3c-5.2,6.2-9.8,12.9-15,19.1c-13.7,0.9-27.1,2.5-40.6,4.9
	c-1.5,0.3-3.1,0.8-4.6,0.3c0.9-4.2,4.7-9.3,6.8-13c12-21,29.9-49.6,50.2-63.1c19.7-13.1,46.4-14.4,69.4-13.8L635.1,45.9z"/>
<path class="st0" d="M539.8,702.2c4.2,2.5,11.1,2.5,14.1,6.2c1,8-3.5,24.4-5.1,33l-8,42.5c-1.5,7.9-2.4,15.9-4.1,23.8
	c-5,1.8-10,3.6-15.2,5c-7.8,2.2-15.7,3.9-23.7,5.3c5.8-42.2,12.6-85.3,23.8-126.5c0.9-3.1,2.1-10.6,4.4-12.6
	C528.3,688.1,531,696.9,539.8,702.2z"/>
<path class="st0" d="M708,554.3c19,10.5,32.7,12.1,53.7,6.9c-0.7,10.9,0,27-5.2,36.4c-44.6-0.3-94-21.7-130-46.8
	c3.9-11,10.1-28,15.4-37.9l0.5-0.7c4.7,1.5,11.4,7.2,15.9,9.9c9.9,6,20.6,11.6,31.4,15.7C695,544.6,700.8,549.4,708,554.3z"/>
<path class="st3" d="M708,554.3c-0.6,0.3-1,0.3-1.6,0.2c-12-2.2-58.3-26.5-65.5-35.1c0.5-2.2,1-4.3,1-6.6l0.5-0.7
	c4.7,1.5,11.4,7.2,15.9,9.9c9.9,6,20.6,11.6,31.4,15.7C695,544.6,700.8,549.4,708,554.3z"/>
<path class="st3" d="M459.7,849.4c6.7,25.9,15.7,47.2,29.8,70.1c-5,0.5-93.4-4.3-95.3-4.9c7.5-18.9,13.1-38.4,19.2-57.7
	c4-12.9,8.6-25.6,12.7-38.4c9.7,3,19.8,5.7,29.3,9.4C455.9,835.1,457.9,842.3,459.7,849.4z"/>
<path class="st3" d="M779.3,454.9c8.7,14.2,9.8,30.6,5.8,46.6c-3.5,13.9-11.9,27.7-24.4,35.2c-5.2,3.1-10.4,4.6-16.4,5.3
	c-7.1-0.3-13-2.3-17.9-7.6c-8.5-9-10.5-23.1-9.8-34.9c1-19,8.8-39.4,23.2-52.3c4.6-4.2,11.8-9.1,18.3-9c0.2,0,0.4,0,0.6,0
	C767.9,440.3,774.5,447,779.3,454.9z"/>
<path d="M773.6,481.7c3,7.3,1.7,16-1.4,23c-2.1,4.8-5.6,9.5-10.7,11.3c-2.1,0.8-4.4,0.9-6.6,0.5c-4.5-2.1-7.4-5-9-9.7
	c-2.5-7.2-0.9-15.8,2.4-22.5c2.3-4.6,5.9-9,10.8-10.7c2-0.7,4-0.7,6.1-0.6C769.3,474.9,771.8,477.5,773.6,481.7z"/>
<path class="st3" d="M770.2,485.3c1.7,6.5,0.1,14.6-3.3,20.4c-1.7,2.9-4.4,5.9-7.8,6.6c-1.2,0.3-2.4,0.2-3.6,0
	c-3.6-2.1-5.4-4.6-6.4-8.7c-1.5-6.3,0.4-14.1,4-19.4c2.1-3.1,5.1-5.9,9-6.5c0.7-0.1,1.4-0.2,2.1-0.2
	C767.4,479.4,769.2,481.5,770.2,485.3z"/>
<path class="st0" d="M717.4,604.7c7.9,1.8,15.8,3.1,23.8,3.8c3.9,0.4,7.9,0.4,11.7,1.1c1.1,0.2,3.5,0.6,4.3,1.4
	c0.7,0.7,1.1,2.4,1.2,3.3c1.8,10.3-1.2,25.6-0.8,36.7c-10.9-0.2-21.9-0.8-32.7-2.6c-42.6-7.3-84-29.1-115.9-57.8
	c3-9.8,8.5-19.6,12.7-29C651,581.7,682.8,596.5,717.4,604.7z"/>
<path class="st0" d="M715.5,342.6c3.7-42.3-2.6-82.8-20.4-121.4c4.9,2.5,9.8,6.4,14.1,9.8c30.7,24.4,53.6,65.5,65.9,102.4
	c7.8,23.5,12.5,49,11.1,73.8C764.1,384.2,741.3,361.7,715.5,342.6z"/>
<path class="st3" d="M645.3,153.6c-1.3,2.3-2.5,4.4-4.1,6.5c-6-1.6-11.9-3.5-18.1-4.5c-29.5-4.7-57.7,3.4-83.2,18.2
	c-15,8.7-29.6,19.7-41.3,32.6l-12.4,14.9c-9.8-2.4-19.4-5.5-29.1-8.1c-10.4-2.6-20.8-4.9-31.3-6.7c23.8-33.3,57-59.9,98.3-66.9
	c13.3-2.3,27.4-3.1,40.9-2.2C591.6,138.5,620.9,142.6,645.3,153.6z"/>
<path d="M505.5,165.5c1.2,4.7-1.2,9.8-3.8,13.7c-6.4,9.9-17.5,19.7-29.3,22c-2.8,0.5-5.5,0.5-8.3,0.3c-2.3-1-3.6-2-4.6-4.4
	c-1.5-3.6-0.2-7.6,1.3-11c4.9-10.8,16.6-21.5,27.7-25.6c3.9-1.4,7.4-1.9,11.6-1.4C502.9,160.7,504.7,162.4,505.5,165.5z"/>
<path class="st3" d="M500.3,169.7c-1.3,8.3-11,17.2-17.6,21.7c-5.3,3.7-10.8,5.6-17.3,5.2c-1.4-2-1.6-3.5-1.2-5.9
	c1.6-8.7,11.9-18.2,19-22.8c4.6-3,9.8-5,15.4-4.5C500.3,165.6,500.7,167.1,500.3,169.7z"/>
<path class="st3" d="M837.3,68c-79.6,43.6-137,92.6-187.2,168.7l-3.3,4.4c-9.2,1.5-20.2-0.5-27.9-6c-3.8-2.7-5.2-5.2-6.6-9.5
	c4.3-11.8,11.6-23.2,17.7-34.2c23.1-41.9,55.9-95.9,100.9-116.7c19.5-9,40.4-11.9,61.7-11.5C807.7,63.7,822.5,65.4,837.3,68z"/>
<path class="st3" d="M533.6,353c14.5,4.4,40.4,20.3,54.3,28.6c5.9,3.5,11.5,8,17.7,10.9c1.9,3.5,2.8,8,3.5,11.8
	c2.7,14.3,3,28.9-0.6,43.1c-0.2,0.7-0.4,1.4-0.6,2.1c-0.2,0.7-0.4,1.4-0.6,2.1c-0.2,0.7-0.4,1.4-0.7,2c-0.2,0.7-0.5,1.3-0.7,2
	c-0.3,0.7-0.5,1.3-0.8,2c-0.3,0.7-0.5,1.3-0.8,2c-0.3,0.7-0.6,1.3-0.9,2c-0.3,0.6-0.6,1.3-0.9,1.9c-0.3,0.6-0.6,1.3-1,1.9
	c-0.3,0.6-0.7,1.3-1,1.9c-0.3,0.6-0.7,1.2-1.1,1.9c-0.4,0.6-0.7,1.2-1.1,1.8c-0.4,0.6-0.8,1.2-1.1,1.8c-0.4,0.6-0.8,1.2-1.2,1.8
	c-0.4,0.6-0.8,1.2-1.2,1.8c-0.4,0.6-0.8,1.2-1.3,1.7c-0.4,0.6-0.9,1.1-1.3,1.7c-0.4,0.6-0.9,1.1-1.4,1.7c-0.5,0.5-0.9,1.1-1.4,1.6
	c-0.5,0.5-1,1.1-1.4,1.6c-0.5,0.5-1,1-1.5,1.6c-0.5,0.5-1,1-1.5,1.5c-0.5,0.5-1,1-1.6,1.5c-0.5,0.5-1.1,1-1.6,1.4
	c-0.5,0.5-1.1,0.9-1.6,1.4c-0.5,0.5-1.1,0.9-1.7,1.4c-0.6,0.4-1.1,0.9-1.7,1.3c-0.6,0.4-1.1,0.9-1.7,1.3c-0.6,0.4-1.2,0.8-1.8,1.2
	c-0.6,0.4-1.2,0.8-1.8,1.2c-0.6,0.4-1.2,0.8-1.8,1.1c-0.6,0.4-1.2,0.7-1.8,1.1c-23.9,14-53.8,17-80.4,10
	c-20.5-5.4-37.3-14.9-48.1-33.5c4.1,4.4,8.1,8.3,13.5,11c9.4,4.7,20,4,29.7,0.7c19.3-6.5,34.6-24.6,43.3-42.5
	c8.9-18.3,14-41.4,7-61.2c-3.3-9.3-9.8-18.2-19-22.3c-9.4-4.2-20.8-2-30.1,1.4c9.4-7.1,19.3-12.1,30.6-14.9
	C520.8,350.5,527.3,351.1,533.6,353z"/>
<path class="st0" d="M606.4,226c1.4,5.5,3.6,10.3,8.2,13.9c7.3,5.6,20.8,9.1,30,7.6c2-0.3,4.6-1.1,6.2-2.4c4.5-3.7,8-10.5,11.3-15.3
	c5-7.1,10.1-14.2,15.4-21.2c18.7,27.5,25.8,63.2,28.5,95.8c0.8,10.2,1.5,21.3,0,31.5c-10-7.6-20.6-14.6-31.1-21.5
	c-18.7-12.2-37.7-23.7-57.3-34.5c-19.5-10.8-39.4-20.8-59.7-30.1c-17.8-8.2-35.7-16.1-54.3-22.3c7-10,18.5-18.3,28.6-25.1
	c28.6-19.3,63.5-30.4,97.9-23.7C623.3,191.4,609.9,212.8,606.4,226z"/>
<path class="st3" d="M497.8,633.8c9.2,2.1,19.1,5.2,28.5,5.9c-22,39.6-45,129.9-43.9,174.6l-19.1-4.8
	c-28.7-8.1-84.4-23.7-107.3-39.8c-4.4-3.1-7.7-6.5-10.5-11.2c8.2-37.1,21.9-73.1,36.1-108.2c4.2-10.3,7.7-21.1,13.2-30.7
	c3.6-1.6,13.6-7.5,17.2-7.1C440.7,618.8,469,627.3,497.8,633.8z"/>
<path d="M461.8,640.8c9.7,2.5,20.9,4.7,30,8.9c2.6,1.2,4.1,2.4,5.3,5c1.6,3.3,1.4,5.9,0.7,9.4c-1.8,8-5,15.8-7.2,23.7l-17.8,62.6
	c-2.4,8.8-4.5,17.6-6.5,26.4c-1,4.4-1.5,9.6-3.1,13.8c-0.2,0.6-0.5,1.2-0.7,1.7c-3.7-0.6-7.3-1.2-10.9-2.1
	c-20.7-5.6-41-12.2-61.1-19.6c-7.5-2.7-15.6-5.2-22.8-8.9c-3.2-1.6-7.7-4.4-9.3-7.6c-1.4-2.7-1-6.4-0.6-9.2c1.5-9,5.1-18.3,7.9-27
	c8.6-27.5,18.6-54.2,28.8-81.1c1.3-3.5,2.9-8.6,6.5-10.3c1.7-0.8,3.7-1,5.5-0.8C424.7,631.5,443.3,635.9,461.8,640.8z"/>
<path class="st3" d="M394.4,729c-3.7,10.8-7.7,21.5-11,32.4l-0.7,1c-3.9,0.1-16-6.2-18.9-9c-1.4-1.4-1.6-2.4-1.5-4.3
	c0.1-5.2,5.5-26.3,8.1-30C378,723,386.3,725.7,394.4,729z"/>
<path class="st3" d="M468,751.2c-3.1,12-6,24-8.6,36.1c-1.1-0.1-2-0.2-3-0.5c-8.8-2.3-17.4-4.8-26.1-7.5c2.1-5.9,7.7-33,11-35.3
	l0.5,0C450.6,746.4,459.3,748.8,468,751.2z"/>
<path class="st3" d="M437.2,742.8c-1.4,5.3-7.6,32.9-11.2,35l-0.5-0.1c-13.1-4-26-8.5-38.7-13.7c2.1-6.9,7.6-28,11.4-33.3l0.8-0.2
	C411.6,734.5,425,737.8,437.2,742.8z"/>
<path class="st0" d="M421,710.7c9.8,3.3,19.8,5.8,29.7,8.9c8.1,2.6,16.2,5.7,24.4,7.6c-1.7,6.8-3.5,14.1-6.3,20.6
	c-21.9-6.3-43.6-12.7-65.3-19.9c-10.5-3.5-22.6-7-32.3-12.5c0.9-3.6,3.6-16.2,6.2-18.2c0,0,0.1-0.1,0.2-0.1
	C392.4,700.4,406.6,706,421,710.7z"/>
<path class="st3" d="M464.8,646.1c8.1,2.3,16.9,4.1,24.7,7.1c1.5,0.6,2.9,1.7,3.7,3.2c1,2,0.3,4.8-0.1,6.9
	c-1.3,6.2-3.7,12.3-5.6,18.3c-4.3,13.8-9.2,28.3-12.3,42.5l-7-2.4c-16.4-5.4-32.9-10.2-49.3-15.5c-13.4-4.3-26.7-9.3-40.3-13.1
	c3.2-9.2,20.7-60.7,24.7-62.9c0.6-0.3,1.6-0.1,2.3-0.1L464.8,646.1z"/>
<path d="M487.8,663.4c0.8,2.5,0.7,5.5-0.7,7.8c-1.2,2.1-3.8,3.8-6.2,4.1c-0.8,0.1-1.6,0-2.4,0c-2.9-1.5-5.1-3.1-6.3-6.3
	c-0.9-2.4-0.9-5.2,0.4-7.5c1-1.9,3-3.5,5.1-4c1.5-0.3,3-0.2,4.5,0C484.8,659,486.8,660.3,487.8,663.4z"/>
<path class="st3" d="M483.8,667.2c-0.1,1.1-0.8,2.2-1.8,2.8c-1,0.6-2.2,0.6-3.3,0.6c-1.4-1.6-2.4-2.7-2.2-4.9
	c0.1-0.9,0.5-1.6,1.1-2.2c1.1-1.1,2.6-1.1,4.1-1.2C482.9,663.8,484,665.1,483.8,667.2z"/>
<path d="M462.3,668.4c1.1,1.4,0.6,3.8,0.4,5.4c-1,6.4-3.8,12.6-5.6,18.8c-0.9,3.1-1.3,6.5-2.6,9.4c-0.6,1.4-1.6,3-2.9,3.8
	c-2.2,1.3-4,1-6.4,0.5c-8.4-2.1-46.3-12.3-50.6-16.5c-1-4.7,7.8-30.3,10.7-34.7c1.3-2,2.6-3,5-3.5c0.6-0.1,1.1-0.1,1.7-0.1
	C419.2,652.6,458.7,663.8,462.3,668.4z"/>
<path class="st3" d="M457,670.4c0.8,1.1,0.4,2.5,0.3,3.9c-0.9,6.6-5.3,21.8-8.2,27.8c-1.7,0.9-4.5-0.4-6.3-0.9
	c-15-4.3-29.8-8.9-44.6-13.7c1.9-4.7,8.8-27.8,10.7-29.6c1.5-0.3,2.7-0.3,4.2-0.1C420.6,658.5,449.7,666.9,457,670.4z"/>
<path d="M429,665c8.8,2.5,17.6,5.1,26.3,7.8c-1.1,4.7-4.8,22.4-8.2,24.7c-0.5,0.3-0.6,0.3-1.1,0.4c-6.2-0.8-40.3-9.5-43.1-12.6
	c-0.7-4.2,4.4-21.2,6.7-24.7c0.8-0.4,1.3-0.6,2.2-0.6C417.3,662.1,423.3,663.4,429,665z"/>
<path class="st3" d="M450,676c-1,3.8-2.5,14.1-5.8,16.1c-3.3,2.1-8.6-0.5-11.9-1.7c-8.7-2.7-17.1-5.8-25.7-8.8
	c0.6-1.9,1.2-3.8,2.3-5.4l0.5,0.6c1.5,1.9,2.4,3.2,4.9,3.4c1.9-0.5,3-1.4,3.9-3.2c0.9-1.6,1.4-3.7,0.9-5.5c-0.4-1.2-1.3-1.9-2.4-2.4
	c-1.6-0.6-3.7-0.5-5.4-0.6l1-2.5c0.8-0.3,0.9-0.4,1.8-0.3C426.2,668.2,438.5,671.6,450,676z"/>
<path d="M434.3,677.6c-1,0.7-1.3,1.1-2.6,0.9c-0.5-0.1-1.3-0.3-1.7-0.5c0-1.4,0.1-2.3,1.2-3.3c0.9-0.9,2.1-1.3,3.3-1.5
	C434.6,674.8,434.8,676,434.3,677.6z"/>
<path d="M440.5,682.7c-1,0.4-1.6,0.3-2.7,0.2c0-2.4,0.3-4.2,1.8-6.1c0.6-0.3,1.2-0.5,1.9-0.7C441.6,678.4,442,680.8,440.5,682.7z"/>
<path class="st3" d="M614,285.3c64.3,35.5,125.6,77.9,173.7,134.1c5.4,6.3,10.4,13.2,15.3,20c-0.3,4.2-1.5,8.3-2.6,12.4
	c-10.7-17.2-25.5-28.9-45.4-33.6c-14.8-3.5-31-1.5-43.9,6.7c-1.8,1.2-3.6,2.5-5.3,3.8c-3.7-3-7.4-5.9-11.3-8.7
	C596,347.4,466,282.4,343.7,266.4c-28.3-3.7-58.2-5.4-86.6-1.2c-5.7,0.8-11.2,2.1-16.5,4.2c19-20,59.7-48.6,86.2-56.8
	c12.1-3.8,25.2-4.9,37.8-5.2c6.6-0.2,13.8-0.4,20.4,0.3C466.2,213.8,543.4,246.4,614,285.3z"/>
<path d="M354,223.4c1.6,2.1,2,4.9,1.6,7.5c-0.7,4.4-3.5,8.3-7,10.9c-4,2.8-8,3.5-12.8,3.1c-3.4-1-7-2.7-8.7-6.1
	c-1.3-2.5-1.1-5.3-0.3-7.9c1.6-4.7,5.7-8.1,10.1-10c2.9-1.3,5.9-1.7,9-1.7C349.1,219.7,351.9,220.7,354,223.4z"/>
<path class="st3" d="M350.4,227.9c0.6,1.6,0.2,3.4-0.7,4.8c-1.9,3-5.8,5.8-9.3,6.6c-1.4,0.3-3,0.2-4.4,0.2c-1.8-0.8-3.7-2.2-4.3-4.1
	c-0.5-1.6-0.3-2.9,0.5-4.4c1.8-3.2,5.8-5.7,9.3-6.6c1.6-0.4,3.2-0.4,4.9-0.4C348,225,349.6,225.8,350.4,227.9z"/>
<path d="M530.9,264c0.3,0.4,0.5,0.8,0.7,1.2s0.4,0.9,0.6,1.3c0.2,0.4,0.3,0.9,0.5,1.4c0.1,0.5,0.2,0.9,0.3,1.4
	c0.1,0.5,0.1,0.9,0.2,1.4s0,1,0,1.4c0,0.5-0.1,1-0.1,1.4c-0.1,0.5-0.1,0.9-0.3,1.4c-0.1,0.5-0.2,1-0.4,1.4c-0.2,0.5-0.3,0.9-0.5,1.4
	c-0.2,0.5-0.4,0.9-0.7,1.3s-0.5,0.8-0.8,1.2c-0.3,0.4-0.6,0.8-0.9,1.2c-0.3,0.4-0.7,0.7-1.1,1.1c-0.4,0.3-0.8,0.6-1.2,0.9
	c-0.4,0.3-0.8,0.6-1.2,0.8c-3.3,2-6.6,2.2-10.4,2.1c-4.8-1.1-8.5-3.1-11.2-7.4c-2.2-3.5-3-7.8-2-11.7c0.1-0.4,0.3-0.9,0.4-1.3
	c0.2-0.4,0.3-0.9,0.6-1.3c0.2-0.4,0.4-0.8,0.7-1.2c0.2-0.4,0.5-0.8,0.8-1.1c0.3-0.4,0.6-0.7,0.9-1c0.3-0.3,0.7-0.6,1-0.9
	c0.4-0.3,0.7-0.6,1.1-0.8c0.4-0.3,0.8-0.5,1.2-0.7c3.1-1.6,6.6-2,10.1-1.8C523.9,258,528.1,259.7,530.9,264z"/>
<path class="st3" d="M526.7,268c1.1,2,1.4,4.4,0.8,6.6c-0.8,2.5-2.7,4.3-5,5.4c-1.9,0.9-3.8,1-5.9,1c-3.6-1.1-6.5-2.5-8.4-5.8
	c-1.3-2.2-1.8-4.9-1-7.4c0.7-2.2,2.5-3.8,4.5-4.7c1.9-0.8,4.1-1,6.2-1.1C521.5,263.1,524.7,264.5,526.7,268z"/>
<path d="M443.6,236.6c1.6,3.4,1.4,7.5,0.1,10.9c-1.7,4.4-5.4,8-9.8,9.7c-3.7,1.5-7.5,1.6-11.3,0.7c-3.8-1.5-7.3-3.4-9.2-7.3
	c-1.5-3.1-1.2-6.7,0-9.8c2-4.8,6.2-8.5,11-10.4c3.5-1.3,6.8-1.2,10.4-0.9C438.8,231,441.8,232.8,443.6,236.6z"/>
<path class="st3" d="M439.5,239.8c0.8,2.1,0.4,4.4-0.6,6.3c-1.6,3.2-4.8,5.6-8.2,6.7c-2.1,0.7-4.3,0.7-6.5,0.3
	c-2.6-1.2-4.8-2.5-5.9-5.3c-0.7-1.9-0.5-3.9,0.3-5.8c1.6-3.4,5-6,8.5-7.1c2.1-0.7,4.3-0.6,6.6-0.5
	C436.2,235.7,438.4,237,439.5,239.8z"/>
<path d="M616.6,307.4c2.4,3.6,3.5,8.1,2.6,12.4c-0.8,3.8-3.2,7-6.6,8.9c-2.9,1.6-5.4,2-8.7,2.1c-5-0.9-9.1-3-12.1-7.2
	c-2.6-3.6-3.7-8-2.9-12.4c0.7-3.9,2.8-7.3,6.2-9.4c2.7-1.7,5.6-2.1,8.8-2.2C609.1,300.7,613.5,302.7,616.6,307.4z"/>
<path class="st3" d="M613.3,312.1c1.1,2.5,1.4,5.5,0.4,8.1c-0.9,2.2-2.6,3.8-4.7,4.6c-1.8,0.8-3.8,0.8-5.7,0.7
	c-3.7-1.2-6.8-3.1-8.6-6.7c-1.3-2.6-1.7-5.8-0.6-8.6c0.8-2.3,2.6-4,4.8-5c1.8-0.8,3.7-0.8,5.7-0.7
	C608.4,306.1,611.5,308,613.3,312.1z"/>
<path d="M695.3,358.8c2,3.9,2.5,8.6,1.1,12.8c-1.1,3.4-3.5,6.1-6.7,7.7c-3.3,1.6-6.4,1.4-9.9,1.1c-5.3-1.7-9.7-4.1-12.4-9.4
	c-0.2-0.4-0.4-0.9-0.6-1.3c-0.2-0.5-0.3-0.9-0.5-1.4c-0.1-0.5-0.2-0.9-0.3-1.4c-0.1-0.5-0.2-1-0.2-1.5c0-0.5-0.1-1,0-1.5
	c0-0.5,0-1,0.1-1.5c0.1-0.5,0.1-1,0.2-1.4c0.1-0.5,0.2-0.9,0.4-1.4c1.2-3.8,3.9-6.9,7.5-8.6c2.9-1.3,5.7-1.7,8.9-1.4
	C688.2,351.2,692.6,353.5,695.3,358.8z"/>
<path class="st3" d="M690.6,361.5c1.3,2.6,1.5,5.8,0.5,8.5c-0.8,2.2-2.4,3.7-4.5,4.7c-2.1,0.9-4,0.8-6.2,0.5c-3.8-1.4-6.9-3.2-8.7-7
	c-1.1-2.4-1.4-5.2-0.4-7.7c1-2.5,3-4.2,5.5-5.1c1.7-0.7,3.3-0.8,5.1-0.7C685.7,355.9,688.7,357.6,690.6,361.5z"/>
<path class="st3" d="M357.6,295.7l0.4,0.6c10.4-0.5,17.2,0.4,26.1,5.9c8.1,1.3,16.3,4.2,24.2,6.4c29.9,8.2,55.4,16.9,84.2,28.4
	c3.7,1.5,15,5.1,17.1,8c-31.4,10.7-52.1,35.9-66.5,64.8c-9.4,19-16.2,44.5-9,65.3c5.1,14.9,17.1,25.7,31.1,32.3
	c26.9,12.9,59.1,15.3,87.3,5.3c23-8.2,43.4-24.4,54-46.8c10.5-22.3,10.8-43.4,6.3-67.1c3.3,0.5,7.4,4.3,10.2,6.1
	c12.1,7.5,24,14.7,35.3,23.3c-13.9,32.2-27.3,64.7-42.2,96.5c-7.1,15.1-14.7,30-21.9,45.1c-3.5,7.2-8,15-9.8,22.9
	c2.8,4.7,7.9,7.7,11.1,12.2c-11.5,2.7-22.9,5.4-34.6,6.7c-79.2,8.7-176.8-16.3-245-56.7c-26.5-15.7-64.1-47-71.7-77.8
	c-4.5-18.3,12.1-51.5,21.7-67.3c0.2,6.3,0.3,24.7,5.1,28.9c0.6,0.5,1,0.4,1.7,0.3c1.7-2.5-1.6-13.2-2.1-16.6
	c-0.8-6.6-0.5-14.4,0.1-21c0.8-8.3,4.7-15.7,8.1-23.2c2.7-6,5.5-11.9,8.6-17.8c3-5.8,6.2-11.6,9.6-17.3c3.4-5.7,6.9-11.2,10.6-16.7
	c3.7-5.5,7.5-10.8,11.5-16c5-6.6,10.4-13.6,16.8-18.9C343.2,292.5,350.5,294.1,357.6,295.7z"/>
<path class="st0" d="M283.4,460.1c1.7,2.1,3.9,5.7,3.3,8.6c-0.5,2.2-1.8,3.4-3.7,4.4c-2.5,1.4-4.5,1.9-7.3,2.2
	c-7.2-0.3-13.6-1.9-18.6-7.5c-2.7-3.1-4.9-7.6-4.5-11.8c0.2-1.9,1-3.6,2.6-4.8c2.2-1.6,4.9-1.7,7.5-1.5
	C270.7,450.7,278.2,453.6,283.4,460.1z"/>
<path class="st0" d="M557.5,538.2c2.9,3.3,4.8,7.3,4.5,11.7c-0.3,4.2-2.4,7.9-5.7,10.5c-5.6,4.5-12.5,5.1-19.4,5.3
	c-9.4-0.8-18.4-3.4-24.7-10.8c-2.8-3.3-4.8-7.4-4.4-11.9c0.4-4.3,2.9-8.1,6.3-10.7c4.6-3.6,12.6-5.8,18.5-5.2
	C541.6,527.9,551.4,531.3,557.5,538.2z"/>
<path d="M341.2,492.9c29.8,13,67.3,24.9,99.5,29.5c5.6,0.8,13.4,0.2,15.5,6.5c1.4,3.9,0,8.6-1.9,12.1c-2.5,4.5-5.8,7.2-10.1,9.6
	c-20.6,9-46.1,4-66.3-3.9c-22.4-8.8-49.7-22.2-59.7-45.5c-1.6-3.7-4.3-10.4-2.7-14.3c0.6-1.6,2.2-2.8,3.8-3.2
	c0.8-0.2,1.6-0.2,2.4-0.1C328.2,486.6,334.6,490,341.2,492.9z"/>
<path class="st3" d="M433.9,525.5c4.7,0.8,9.9,1,14.4,2.1c1.5,0.4,3.1,1.3,3.9,2.7c1,1.6,0.8,3.5,0.2,5.2c-2,5.7-6.9,10-12.3,12.3
	c-7.7,3.4-16.6,3.7-24.9,3c-7.3-0.7-38-5.9-41.9-10.4c-0.4-0.5-0.4-1.1-0.4-1.8c1.6-4.8,9.4-9.6,13.8-11.8
	c5.8-2.9,16.1-6.1,22.6-6.7C417.4,522.1,425.6,524.1,433.9,525.5z"/>
<path d="M391.4,315.3c8.1,27.4-5.2,67.5-18.5,92c-8.7,16.1-24.2,44.2-42.6,49.2c-8.1,2.2-16.9-0.1-24-4.3
	c-8.8-5.2-16.6-14.7-19.1-24.7c-6.2-25,9.3-64.3,22.2-85.7c11.5-19,25.8-40,48.6-45.6c10.4-0.5,17.2,0.4,26.1,5.9
	C387.7,306.1,389.9,310.3,391.4,315.3z"/>
<path class="st3" d="M341.5,346.7c3.7,8.6,0.9,21.1-2.7,29.3c-3.3,7.8-9.1,16.6-17.3,19.8c-2.3,0.9-4.5,0.9-7,0.8
	c-3.3-1.6-5.1-3.6-6.3-7.1c-3.2-9.4,1-22.1,5.3-30.4c3.4-6.4,9.8-15.9,17-18.3c1.4-0.5,3-0.4,4.5-0.3
	C338.4,341.9,340,343.3,341.5,346.7z"/>
<path class="st3" d="M383.7,309.4c7.8,11.5,6.4,30.4,3.6,43.3c-2.3,10.7-5.5,21.1-9.4,31.4c-7.4,18.9-25.3,54.2-42.4,65.1
	c-5.4,3.5-11.6,4.3-17.9,2.9c-10.1-2.2-17.2-9.3-23.4-17.1c2.2,1.4,4.4,2.8,6.6,4.2c5.6,2.8,10.8,3.1,16.8,1.2
	c14.8-4.7,26.4-22.2,32.9-35.4c9.1-18.5,17.6-51,10.7-70.7c-1.9-5.4-5.4-10.7-10.8-13.2c-5.8-2.7-12.5-1.5-18.2,0.8
	c-1.8,0.7-3.4,1.7-5.1,2.6c8.8-11,19.5-22.3,34.3-23.8c2.1-0.2,4.3-0.3,6.4-0.1C374.4,301.8,379.8,303.7,383.7,309.4z"/>
</svg>
