<?xml version="1.0" encoding="utf-8"?>
<!-- Generator: Adobe Illustrator 24.1.2, SVG Export Plug-In . SVG Version: 6.00 Build 0)  -->
<svg version="1.1" xmlns="http://www.w3.org/2000/svg" xmlns:xlink="http://www.w3.org/1999/xlink" x="0px" y="0px"
	 viewBox="0 0 1024 1024" style="enable-background:new 0 0 1024 1024;" xml:space="preserve">
<style type="text/css">
	.st0{fill:#6865F2;}
	.st1{fill:#FFFFFF;}
	.st2{fill:#9EA3FE;}
</style>
<g id="Layer_2">
</g>
<g id="Layer_1">
	<path class="st0" d="M288.3,951.8c-0.5,1-1,1.5-1.8,2.3c-2,2.1-3.4,4.7-3.4,7.7c0,3.5,2.2,6.6,4.7,8.8
		c16.6,14.6,60.9,15.5,82.7,13.7c17.1-1.4,69.7-10.6,80.1-24.1c1.4-1.8,1.7-4.9,2.2-7c2.3,2.6,21.5,4.5,25.7,4.8
		c-5,4.6-10.7,9.3-14.1,15.3c-2.1,3.8-2.6,8.1-1.3,12.2c1.3,4.2,4.1,6.7,8,8.7c7.5,3.7,16.5,5.1,24.7,6.4c34.7,5.5,74,4.9,107.5-6.6
		c7.4-2.5,17.8-6.4,21.3-14c3.4-7.4-3.1-13.7-6.3-19.6c-1.7-3.1-2.9-6.6-4.2-10c15.2,2.1,63,9.3,71.7,21.2c1.1,1.5,1.8,3.2,1.4,5.1
		c-0.6,2.9-3.5,4.7-5.9,5.9c-40,20.9-151.4,30-198.5,30.8c-42.2,0.7-84-1.9-126-5.1c-38-2.9-86.7-6.7-122.8-18.2
		c-7-2.2-20.5-6.1-24.1-12.9c-0.8-1.5-1-3.1-0.4-4.7c1.6-4.5,7.7-7.4,11.9-9.2c11.7-4.9,52.8-12.9,66.2-12.8L288.3,951.8z"/>
	<path d="M685.7,90.2c-7.9,9.1-16,18-23.8,27.2c30.9,11.8,59.9,29.2,87,48.1c48.7,34,98,90.3,121.3,145.2
		c6.9,16.2,11.4,33,14.5,50.3c6.5,5.5,12.1,12.8,16.3,20.1c3,5.2,4.3,10.2,6.2,15.8c1.3,3.7,3,7.3,4,11.1c2.5,8.9,1.5,19.3-0.9,28.2
		c-2.9,10.3-7.6,21.2-14.2,29.7c-2.8,3.6-6.2,6.8-9,10.4c-6.5,8.4-11.9,16.1-20.6,22.5c-6.1,4.5-15,7.5-19.9,11.7
		c-3.6,3.1-6.2,7.5-9.2,11.2c-5.8,7.1-14.2,12.9-22.1,17.3c-57.1,31.9-157.8,14.6-219.2,1.2c-13.6-3-27.5-5.5-40.9-9.3
		c30.5,28.4,52.4,64.7,68.1,103c15,36.7,27.4,76.1,30.9,115.8c0.7,7.6,1.9,17.2-1.3,24.4c-7.2,16.1-33.1,28.9-48.5,35.2
		c3.1,10.3,11.1,48.6,7.8,57.6c-3.1,8.3-18.1,13.7-25.5,17.1c9,22.2,17.9,44.4,27.5,66.4c1.3,3.3,2.5,6.8,4.2,10
		c3.3,6,9.7,12.2,6.3,19.6c-3.5,7.6-13.9,11.5-21.3,14c-33.5,11.5-72.8,12.1-107.5,6.6c-8.2-1.3-17.2-2.7-24.7-6.4
		c-3.9-1.9-6.6-4.4-8-8.7c-1.3-4.2-0.8-8.5,1.3-12.2c3.4-6,9-10.8,14.1-15.3c-4.2-0.3-23.4-2.2-25.7-4.8c-0.5,2.2-0.9,5.3-2.2,7
		c-10.4,13.5-63,22.7-80.1,24.1c-21.8,1.8-66.1,0.9-82.7-13.7c-2.5-2.2-4.7-5.3-4.7-8.8c0-3,1.4-5.6,3.4-7.7
		c0.7-0.8,1.3-1.3,1.8-2.3l-0.8-1.2c-2.2-2.7-4.8-5.9-4.4-9.6c0.2-1.8,1.1-3.1,2.5-4.2c6.1-4.9,23.9-5.1,31.8-4.4
		c6.2-7.9,15.5-15.6,25.9-17c3.6-10.5,5.7-21.2,7.6-32.1c-5.9-1.9-11.8-4.7-17.6-7.1c-0.4,4.6,0.7,15.3-2.7,18.6
		c-1.2,1.2-2.8,1.4-4.4,1.1c-7.5-1.1-38-18.8-42.3-24.8c-5.2-7.2,7.3-77.1,9.1-89.4c-3.9-7-9.1-13.1-12.9-20.3
		c-17.2-32.9-22.9-69.4-23.5-106.2c-5.8-3.7-12.2-7.4-15.6-13.6c-3.7-0.3-7.5-0.8-11.1-1.6c-13.7-2.9-26.5-10.7-34-22.6
		c-6-9.5-7-18.4-4.5-29.2c-6.8-5.3-78.9-90-82.5-97.6c-0.8-1.6-0.7-3-0.1-4.6c3.7-3.1,15.9-1,20.6-0.7c0.1-1,0.3-1.9,0.5-2.9
		c0.4-2,1.3-3.7,3.1-4.7c1.5-0.8,3.1-0.9,4.7-0.9c9.1-0.2,18.3,0.5,27.4,0.9l63.7,2.8l42.6,1.7c9.9,0.4,21.6-0.1,31.1,2.6
		c6.2,6.2,11.1,14.6,16.3,21.8c9.7,13.5,19.5,27,29.3,40.4c13.8-18.3,32.7-35.4,52.5-47c4.8-2.8,10-4.7,14.9-7.3
		c-22-7.8-44.1-14.6-65.8-23.3c-54.7-21.8-140.1-61.6-164.4-119c-12.4-29.3-6.6-58.7,4.8-87.2c-0.8-2.3-1.4-4.6-1.8-6.9
		c-0.5-2.3-0.8-4.7-0.9-7.1c-1.3-20,4.2-39.8,17.6-55.1c13.6-15.5,30.8-25.7,51.6-27.1c19.2-16.2,38.6-31.3,60.8-43.2
		c82.3-44.2,167.9-53.8,258.9-34.3c16.3,3.5,32.6,8.2,48.6,13.1c7.1-5.6,15.4-10.3,22.9-15.3l44.6-29.8c-1.9-3.8-2.7-8.4-1.6-12.5
		c1.1-4,3.8-7.1,7.4-9.1c6.3-3.6,14.5-3.7,21.4-1.8c6.3,1.7,12.7,5.5,15.9,11.3c2.1,3.8,2.9,9.3,1.5,13.5c-1.5,4.4-6.5,9-10.6,10.9
		c-7.3,3.3-14.9,1.9-22.1-0.8C697.8,75.5,691.9,83.1,685.7,90.2z"/>
	<path class="st1" d="M723.8,49.2c-2.5,0.3-25.3-1.5-27.2-2.2c0.9-1.8,1.9-3.5,3.5-4.8c4.4-3.5,10.5-4.2,15.9-3.3
		c5.6,0.9,9.3,3.3,12.5,7.9C727.2,48.6,725.9,49,723.8,49.2z"/>
	<path class="st1" d="M234.6,191.2c-5.4,1.9-15.6,10.4-21,8.7c8.6-12.8,23.3-22.2,38-26.2C246.7,178.6,240,187.6,234.6,191.2z"/>
	<path class="st0" d="M316.6,666.3c1.6,5.8-2.8,35.3-5.3,40.4c-0.2,0.5-0.5,0.9-1,1.2c-1.6-14.4-3.2-28.2-2.2-42.7l7.1,0.5
		L316.6,666.3z"/>
	<path class="st1" d="M638,108.7l-6.2-2.6c8.9-7.1,18.4-13.5,27.7-20c10.9-7.6,21.8-15.1,32.8-22.4C691.3,68.5,645.4,102,638,108.7z
		"/>
	<path class="st0" d="M431.6,731.5l0.6,9.1c0.5,2.7,0.4,5.4,0.4,8.1c-4-1-9.1-1.5-12.1-4.6c-3.9-4.1-1.1-16.5-0.9-21.9
		c3.6,0.2,7.5-0.1,11,1.3c0.9,1.1,1,1.9,1,3.3L431.6,731.5z"/>
	<path class="st1" d="M424.6,734.7l-0.8,0.3c-0.8-2.6-1.2-4.9-0.1-7.4c1-0.8,1.4-0.8,2.8-0.9C426.7,729.1,425.8,732.5,424.6,734.7z"
		/>
	<path class="st1" d="M431.6,731.5l0.6,9.1c-1.2,0.1-1.3-0.1-2.4-0.8c-0.8-1.6-0.7-2.9-0.7-4.6l-4.2,3.6c0.8-2.5,1.2-5,2.1-7.5
		c0.9-2.6,2.1-3.3,4.6-4.4L431.6,731.5z"/>
	<path class="st1" d="M322.5,942.7c0.3,3.4-8.1,15.4-10.4,18.8c-3.2-1.8-6.2-3.6-9.2-5.8c-4.8-4.2-9.6-8.6-13.7-13.5
		c8.5-2.9,17.5-3.7,26.5-3.1C318.4,939.8,320.7,940.4,322.5,942.7z"/>
	<path class="st1" d="M504.8,973.6c-1.9,3.1-4,6.2-6.2,9.1c-4.5-1.1-9-2.2-13.5-3.5c-4.1-1.5-8.2-3-11.9-5.3
		c3.9-5.7,10.5-11.6,17.5-12.9c1.7-0.3,3.4-0.4,5.1-0.5C500.4,963.8,503,968.2,504.8,973.6z"/>
	<path class="st0" d="M197,247.1c0.2-14.8,5.1-36.5,16.4-47.1c0.1-0.1,0.1-0.1,0.2-0.2c5.5,1.7,15.7-6.8,21-8.7
		C220.5,209.3,206.8,226.2,197,247.1z"/>
	<path class="st0" d="M730.6,53.7c-0.2,3.1-1,5.9-3.5,8c-3.6,3-8.9,3.3-13.3,2.7c-5.7-0.8-12.2-3.6-15.6-8.5c-1.4-2.1-2.5-5-2-7.5
		c0.2-0.8,0.1-0.7,0.4-1.3c1.9,0.7,24.7,2.4,27.2,2.2c2.1-0.2,3.4-0.7,4.7-2.3C730.5,49.1,730.8,50.8,730.6,53.7z"/>
	<path class="st1" d="M291.7,493.5c-8.5-0.3-17-1.1-25.5-1.5c-23.3-1.1-46.7-2.3-70-3.7c-19.9-1.1-40.1-1.3-60-2.9
		c-1.3-0.1-0.8,0-1.9-0.5c0-1.1-0.2-0.9,0.6-1.5c0.9-0.7,1.6-1,2.8-1.1c5.9-0.2,12.1,0.6,18,0.9l35.3,1.9
		c24.2,1.3,48.5,2.5,72.7,3.5l24.1,1c3.2,0.1,6.9-0.1,9.9,0.5c1.3,0.2,2,0.8,2.7,2c0.4,0.7,0.8,1.6,1.1,2.4
		C298.4,494.7,294.9,493.9,291.7,493.5z"/>
	<path class="st0" d="M700.2,65.1c-16.1,16.1-32,33.2-48.4,48.8c-4.5-1.5-9.5-3.1-13.8-5.2c7.3-6.8,53.3-40.3,54.3-45
		c1-1.1,2.1-2,3.2-2.9L700.2,65.1z"/>
	<path class="st0" d="M448.6,649.3c0.4,8.3,0.8,16.6,1.4,24.9c-4.5-0.4-9-1-13.6-1.3c-7.8-0.8-16-1.1-23.7-2.5
		c6.3-2.3,9.9-4.5,14.3-9.6c-1.9-6.2-6.8-10.8-9.7-16.6c0.6-0.5,0.3-0.4,0.9-0.4C430.8,650.9,437,645.7,448.6,649.3z"/>
	<path class="st1" d="M869.8,344.3l-4.4-3.2c-4.1-3.3-8.4-6.4-12.8-9.3c-4.4-2.9-8.9-5.7-13.6-8.2c0.7-4.1,5.6-37.1,6.6-38.2
		C856.2,302.5,865.7,324.8,869.8,344.3z"/>
	<path class="st0" d="M442.6,959.5c-14.9,11.6-64.7,18.1-84.8,18.7c-5.1,0.1-10.2,0-15.3-0.2c-5.1-0.3-10.1-0.8-15.2-1.5
		c-8-1.2-30.1-5.1-35-12c-0.4-0.6-0.6-1-1-1.6c0.5-1.5,0.9-2.6,1.8-3.9c1-0.3,0.6-0.4,1.3,0c5.1,2.7,8.9,6.8,14.4,8.9
		c30.4,11.4,79.9,2.8,110.6-6.2c9.2-2.7,17.8-6.5,26.4-10.8C445.5,954.4,445.5,957.3,442.6,959.5z"/>
	<path class="st0" d="M616.9,979.9c-11.7,11.2-53,16.3-69.7,17.3c-8.3,0.5-16.8,0.5-25.1,0.1c-12.6-0.6-42.2-2.4-51.3-10.9
		c-0.7-1.4-1.3-2.5-1.5-4.1l0.4-0.4c37,14.2,101,12.5,137.4-3.4c4.2-1.8,7.8-4.9,11.9-6.6C619.1,975.3,619.5,977.5,616.9,979.9z"/>
	<path class="st0" d="M607.7,970.9c-5.8,2.8-11.8,4.9-17.9,7c-8.1-10.7-15.2-17.3-28.4-21.1c-18.3-3.1-34.5,2.7-49.9,12.2l-2.9-5.3
		c16.5-9.8,33.4-18.2,53.2-16.5C579.9,948.8,595.2,957.9,607.7,970.9z"/>
	<path class="st0" d="M409.6,949.2c1.6,2,3.1,4.1,4.3,6.3c-3.4,1-6.9,2.1-10.4,3c-1-1.5-2.1-3-3.2-4.4c-1.2-1.4-2.4-2.8-3.7-4
		c-1.3-1.3-2.7-2.5-4.1-3.6c-1.4-1.1-2.9-2.2-4.5-3.1c-14.1-8.3-31.3-12.3-47.4-8.2c-4,1-7.9,2.5-11.3,4.9c-1.8-1.8-3.6-3.5-5.2-5.4
		c6.7-7.7,13.4-11.9,23.8-12.7c3.3-0.3,7-0.3,10.3,0.2C378.9,924.5,396.4,932.7,409.6,949.2z"/>
	<path class="st1" d="M489.8,514.4c-20.8,11.1-40.9,27.8-57.2,44.7c-2.5,2.7-5.1,5.3-7.5,8.2c0.3-8.1,0.7-16.2,1.8-24.2
		c7.1-7.3,36.3-32.8,45.1-33C477.9,511.6,483.9,513.1,489.8,514.4z"/>
	<path class="st1" d="M581.7,977.1c0.5,0.7,1,1.4,1.4,2.1c-15.8,4.6-33,5.3-49.4,5.5c-8.9-0.1-17.9,0.1-26.8-1.3
		c9.4-11.4,23.3-19.3,38.1-20.8c3.3-0.3,7-0.5,10.2,0C566.1,964.4,575.1,968,581.7,977.1z"/>
	<path class="st1" d="M898.7,434.6c-1.1-7.1-4.7-13.4-9.3-18.7c-7.6-8.7-17.7-15.5-29.3-17.2c-4-0.6-8.3-0.4-12.3-0.7
		c6.6-7.6,15-14.3,25.3-15.2c7.5-0.7,14.4,2.8,19.9,7.6c7.5,6.5,11.7,15.3,12.4,25.1c0.1,1.1,0.1,2.2,0.1,3.3c0,1.1-0.1,2.2-0.2,3.3
		c-0.1,1.1-0.2,2.2-0.4,3.3c-0.2,1.1-0.4,2.2-0.7,3.2c-0.3,1.1-0.6,2.1-0.9,3.2c-0.3,1-0.7,2.1-1.1,3.1c-0.4,1-0.9,2-1.4,3
		c-0.5,1-1,1.9-1.6,2.9C898.9,438.6,899,436.6,898.7,434.6z"/>
	<path class="st1" d="M391.4,955.3c1.4,1.7,2.6,3.5,3.7,5.3c-13,3.4-26.8,4.8-40.2,5.6c-11.5,0.7-23-0.2-34.4-1.9
		c3.9-9,7.7-17.1,17.5-21.2c6.4-2.6,14.5-3.2,21.2-2.4C370.8,941.9,383.8,946,391.4,955.3z"/>
	<path class="st0" d="M384.4,581.4c-3.3,0.6-6.6,1-9.8,2.1L362,565.2c6.2-9.4,12.8-18.2,19.7-27.1c2.3-2.9,4.5-5.8,6.5-8.9
		c-12.3,7.5-22.6,18.8-30.2,31l-5.8-7.2c15.2-14,37.5-43.5,56.8-50.4C395.3,522.9,384.8,556.8,384.4,581.4z"/>
	<path class="st2" d="M310.6,507.5c4.8,7.2,9.9,14.2,14.8,21.2l64.3,90.2c6.6,9.4,13.3,18.6,19.7,28.1c2.6,3.8,5.7,7.5,8,11.6
		c0.7,1.2,1.2,2.2,1.2,3.5c0,0.9-0.3,0.9-0.9,1.5c-0.7,0.1-1.5,0.3-2.1-0.1c-5.2-2.7-94.9-127.5-106.9-143.9
		c-4.7-6.4-10-12.5-14.3-19.2c-1.4-2.2-2-4.4-2.7-6.8c3.1,0.4,6.7,1.2,9.8,0.9C305,497.6,307.9,503.5,310.6,507.5z"/>
	<path class="st1" d="M247.7,613.5c2.6,3.8,7.2,10.4,6,15.2c-0.4,1.6-1.7,3.1-3.1,3.9c-2.1,1.2-4.9,1.5-7.2,1.7
		c-0.9-0.1-1.7-0.1-2.6-0.2c-0.9-0.1-1.7-0.2-2.6-0.4c-0.9-0.1-1.7-0.3-2.6-0.5c-0.9-0.2-1.7-0.4-2.5-0.6c-0.8-0.2-1.7-0.5-2.5-0.7
		s-1.7-0.6-2.5-0.9c-0.8-0.3-1.6-0.6-2.4-1c-0.8-0.3-1.6-0.7-2.4-1.1c-0.8-0.4-1.6-0.8-2.3-1.2c-0.8-0.4-1.5-0.9-2.3-1.3
		c-0.7-0.5-1.5-0.9-2.2-1.4c-0.7-0.5-1.4-1-2.1-1.5c-0.7-0.5-1.4-1.1-2-1.6c-0.7-0.6-1.3-1.1-2-1.7c-0.6-0.6-1.3-1.2-1.9-1.8
		c-0.6-0.6-1.2-1.3-1.8-1.9c-6.6-7.6-10.4-15.8-10-26c2.8-2.5,5.4-4.9,9.3-4.7c0.3,0,0.6,0,0.9,0.1
		C223.4,588.8,238.3,599.6,247.7,613.5z"/>
	<path class="st0" d="M331.7,687c20.7,7.4,44.6,9.1,66.3,11.7c18.2,2.1,36.5,4.6,54.8,4.8c0.5,4.3,1.8,9.8,1.2,14.1l-0.9,0.4
		c-36.4-4.8-97.7-6.3-129.4-22.1c0.3-4.1,0.2-8.5,1.1-12.5C327,684.9,329.2,686.1,331.7,687z"/>
	<path class="st1" d="M282.6,661.7c0.1,21.3,2.8,44,9.6,64.3c2.2,6.7,5.5,13,7.9,19.6l-5.5,27.3l-0.6,2.6c-1.4-1.2-2.6-4.8-3.4-6.6
		c-4.3-9.3-7-18.5-10-28.2c-7-22.5-12.4-44.5-15.9-67.8c-0.7-4.3-2.1-9.7-2-14c0-0.6,0.1-0.8,0.3-1.2l0.6-0.1
		C269.7,659.7,275.9,661.4,282.6,661.7z"/>
	<path class="st1" d="M466.1,660c2.7,30.4,9.8,86.9,26.1,111.8c-1.2,6.1-3,11.6-6,17c-1.4,2-2.7,3.6-4.4,5.2
		c-2.3-3.4-4.2-6.7-5.8-10.5c-6.3-15.5-9-32.9-11.7-49.4c-4.3-26.2-7.8-52.4-7.9-79l0.3-0.5C459.8,656.5,462.8,658.4,466.1,660z"/>
	<path class="st0" d="M419.8,679.3c10.1,0.9,20.6,2.2,30.7,2.3c0.4,3.9,2.4,10.9,0.7,14.4c-1.4,0.7-2.3,0.3-3.8,0.2
		c-37.7-3.3-86.8-6.7-122.2-18c0-3.3-0.6-7,0.7-10c1.3-0.9,1.9-0.5,3.4-0.3C359.4,671.8,389.6,676.5,419.8,679.3z"/>
	<path class="st1" d="M430.9,497.1c-9.1,24-16.7,62.1-10.6,87.2c-5.5-1.2-11-2.5-16.6-3.3c-4.5-0.3-8.9-0.1-13.3,0.1
		c0.4-3.2,0.8-6.4,1.3-9.5c0.5-3.2,1.1-6.3,1.7-9.5c0.6-3.1,1.3-6.3,2.1-9.4c0.8-3.1,1.6-6.2,2.5-9.3c0.9-3.1,1.8-6.1,2.9-9.2
		c1-3,2.1-6.1,3.2-9.1c1.1-3,2.3-6,3.6-8.9c1.3-2.9,2.6-5.9,4-8.8c1.9-4,4.6-10.3,8.1-13.2c0.5-0.4,0.4-0.3,0.9-0.3
		C424,495.2,427.4,496.2,430.9,497.1z"/>
	<path class="st1" d="M399,720.3l3.2,0.3c4,0.3,9.1,0.3,12.9,1.3l4.5,0.4c-0.2,5.4-3,17.8,0.9,21.9c3,3.1,8.1,3.6,12.1,4.6l0.1,5.3
		l0.4,4.3l-0.1,2.5l0.1,3.6l0.2,2.6c-10.7,1.9-23,1.9-33-3c-8-4-15.3-11.6-18.1-20.2c-2.8-8.6-0.9-17.5,2.9-25.5l3.2,0.6
		C391.7,719.4,395.8,719.4,399,720.3z"/>
	<path class="st0" d="M400,724.6c-1.2,4-4.3,7.7-7.7,10.1c-0.1,0.1-0.2,0.2-0.3,0.2c-0.8-3.2-1.1-10.4-3.4-12.4l-0.8,0.1
		c-1,4.9-0.4,9.3,0.2,14.2c-0.8,1.1-1,1.6-2.3,2.1c-0.4-0.4-0.4-0.5-0.6-1.1c-1.4-3.9,0.7-11.7,2-15.5l1.4-3.5
		c3.4,0.4,7.4,0.4,10.6,1.3C399.7,721.8,400.5,722.8,400,724.6z"/>
	<path class="st0" d="M433.1,764.4c-12,0.5-25.3-0.4-35.4-7.6c-3.8-2.7-10-9-10.8-13.7l1.6-1c3.7,0.6,5.9,6.5,8.8,9.1
		c10.1,9.1,22.6,10.4,35.7,9.8L433.1,764.4z"/>
	<path class="st0" d="M419.6,722.3c-0.2,5.4-3,17.8,0.9,21.9c3,3.1,8.1,3.6,12.1,4.6l0.1,5.3l0.4,4.3l-0.8-1.6
		c-4.4-1.1-9.5-0.4-14.2-1.3c-10.8-2.1-18.4-7.3-24.4-16.4c1.7-1.1,3.4-2.3,5.2-3.4l3.4-8c2.5,1.6,5.3,3.8,8.4,4l0.6-0.5
		c0-0.2,0-0.4,0-0.6c-0.8-3.9-6.2-7.7-9.2-10.1c4,0.3,9.1,0.3,12.9,1.3L419.6,722.3z"/>
	<path class="st1" d="M420.5,744.2c3,3.1,8.1,3.6,12.1,4.6l0.1,5.3c-3.5-0.3-6.8-0.8-10.2-1.8c-7.1-2-13.8-5.5-17.4-12.1
		c-0.9-1.7-2.2-3.8-1.6-5.8l1-0.4c4,0.7,7.5,5.9,10.5,8.6l0.2-20.6l4.5,0.4C419.4,727.7,416.6,740.1,420.5,744.2z"/>
	<path class="st0" d="M382.2,743.8c2.8,8.6,10.1,16.2,18.1,20.2c10,4.9,22.2,4.9,33,3c0.1,1.7,0.2,3.3,0.2,5c-0.2,0-0.4,0-0.6,0.1
		c-2.3,0.3-4.8,3.1-7,4c-11.3,4.4-24.5,1-35.3-2.9c-2.7-5.1-5.4-7.8-11.2-9.7c-7.5-2.4-20.1-3-27,1.1c-3.7,2.2-6.5,7-9.3,10.3
		c0.5-16.3,5.7-46.1,9.8-62.4c10.6,2.5,21.5,4.1,32.3,5.8C381.3,726.2,379.4,735.2,382.2,743.8z"/>
	<path class="st1" d="M527.9,524.9c-21.9,11.7-41.4,26-58.8,43.7c-6.3,6.4-12,13.2-18.3,19.6l-5.2,4.9c-6.2-2.7-12.4-5.1-18.9-6.9
		l-1.3-9.6c13.1-17.6,40-38.6,57.7-51.7c3.3-2.4,8.9-7.4,12.7-8l0.7,0.2C507,519.8,517.6,522,527.9,524.9z"/>
	<path class="st0" d="M860,398.6c11.7,1.7,21.7,8.4,29.3,17.2c4.7,5.4,8.2,11.6,9.3,18.7c0.3,2,0.2,4.1,0.5,6.1
		c-0.5,1.2-1.4,2.4-2.2,3.4c-5.7,7.3-13.2,11.9-22.5,13c-0.5,0.1-1,0.1-1.6,0.1c-0.5,0-1,0.1-1.6,0.1c-0.5,0-1,0-1.6,0
		c-0.5,0-1-0.1-1.6-0.1c-0.5,0-1-0.1-1.6-0.2s-1-0.2-1.5-0.3c-0.5-0.1-1-0.2-1.5-0.3c-0.5-0.1-1-0.3-1.5-0.4c-0.5-0.1-1-0.3-1.5-0.5
		c-0.5-0.2-1-0.4-1.5-0.6c-0.5-0.2-1-0.4-1.4-0.6c-0.5-0.2-0.9-0.5-1.4-0.7c-0.5-0.2-0.9-0.5-1.4-0.8c-0.4-0.3-0.9-0.5-1.3-0.8
		c-0.4-0.3-0.9-0.6-1.3-0.9c-0.4-0.3-0.8-0.6-1.2-1c-6.8-5.6-10.7-14.4-11.6-23c-0.9-9.6,1.8-21.7,8-29.2
		C851.8,398.2,856,398.1,860,398.6z"/>
	<path class="st1" d="M421.3,894.5c2.3,9.6,4.8,19.4,6.5,29.2l0.3,0.4c6.1,6.7,12.8,11.4,16.7,19.9c-4.1,2.6-8.5,4.5-13.1,6.3
		c-3.6,1.5-7.2,2.9-10.9,4.1c-7.8-15.9-24.6-28.7-41.1-34.4c-8.7-3-17.6-3.9-26.7-4.5c1.1-4.6,5.2-27.9,6.6-29.9l0.4-0.1
		C380.1,890,400.6,894.6,421.3,894.5z"/>
	<path class="st0" d="M846,332.3c-20-3.7-36.2-2.9-53.5,9c-19.7,13.5-32,35.5-36.3,58.7c-4.5,24.1-1.6,51.5,12.7,72
		c11.2,16.2,27.7,26.9,47.2,30.4c12,2.2,24.5,1,36.1-2.5l8.2-2.6c-13,10-30.8,11.9-46.7,9.9c-22.4-2.9-41.2-13.2-55-31.1
		c-16.9-21.9-22-49-18.3-76c3.3-24.3,16.6-48.4,36.3-63.3c11.8-9,26-14.3,40.9-14.2C827.9,323.5,837.3,326.7,846,332.3z"/>
	<path class="st0" d="M862.9,348c-20.4-3.6-34.9-4.4-52.7,8.1c-16.9,11.9-27.6,30-31,50.3c-3.2,19.3,0.5,39.5,12,55.5
		c10,13.9,24.6,23.4,41.7,26.1c13.5,2.1,26.1-0.4,38.5-5.9l7.2-3.5c-10.9,11.7-26.6,17.5-42.3,18c-18.2,0.6-36.1-5.1-49.5-17.7
		c-15.5-14.6-23.5-34-24-55.1c-0.6-25,6.7-50.2,24.4-68.4c10.4-10.7,24.9-18.3,40-18.3c1.3,0,2.7,0.1,4,0.2
		C843.4,338.5,852.7,341.5,862.9,348z"/>
	<path class="st1" d="M442.4,906c6,5,57.2,0,67.9-1.4c2.1,7.1,4.9,14,7.6,20.9c-1.1,6.1-3.1,11.9-4.1,18c-5.6,3.1-11.9,7.2-18,9.3
		c-6,2-11.6,2.3-17.4,5.2c-4.2-0.3-23.4-2.2-25.7-4.8c0.5-10-3.1-17.1-9.8-24.4c-2.5-2.7-5.4-5.3-8.4-7.4
		c-2.4-8.5-4.6-17.4-6.4-26.1c3.8,0.1,7.6,0.1,11.4,0.5C439.9,898.9,439.8,903.8,442.4,906z"/>
	<path class="st1" d="M598.8,932.4c2.3,5.2,15.4,32.7,15.6,35.4l-1.4,0.6c-3.8-2.7-7.3-8.4-11.1-11.8
		c-15.8-13.9-36.7-18.1-57.1-14.6c-1,0.2-2.1,0.4-3.1,0.6c-9.4,2.3-17.6,5.7-26,10.5c-2.7,1.5-8,5.8-10.8,5.7l-0.7-0.8
		c1.8-3.2,11.4-6.6,14.9-9c3.6-7.4,5.1-17.7,6.3-25.9c-3.2-6.4-5.5-13.1-7.8-19.8c21.1-4.3,42.1-8.7,62.2-16.6
		C585.9,902.1,592.2,917.3,598.8,932.4z"/>
	<path class="st1" d="M837.6,281.7c-7.7-13-17.5-25.5-27.3-37c-20-23.6-49.1-48.3-74.9-65.1c-9.1-5.9-18.6-11.1-28.1-16.3
		c-17.6-9.8-35.7-18.7-54.3-26.6c-45.2-18.8-95.4-31.1-143.8-37.9c-13.6-1.9-27.2-3.3-40.9-4.1c-8.6-0.4-17.2-0.2-25.8-0.9l-0.3-0.7
		c14.6-1.6,29.2-2.9,44-3.1c82-0.9,164.5,24.5,233.5,68.3c16.2,10.3,31.5,21.9,46.4,33.9c3.5,2.9,7,5.9,10.4,8.9
		c3.4,3,6.8,6.1,10.1,9.3c3.3,3.2,6.5,6.4,9.7,9.7c3.2,3.3,6.3,6.6,9.3,10c3,3.4,6,6.9,8.9,10.4c2.9,3.5,5.7,7.1,8.5,10.7
		c2.8,3.6,5.5,7.3,8.1,11.1c2.6,3.7,5.2,7.5,7.6,11.4C838.3,276.4,837.9,279,837.6,281.7z"/>
	<path class="st1" d="M479.8,618c6.5,16.1,9.5,34.3,11.9,51.4c-9.7-6.7-19.8-13.7-30.1-19.4c-3.3-1.4-6.5-2.8-9.7-4.3
		c4.8-1.9,12.3-4.5,15.6-8.7l-0.1-0.6c-4.1-1.2-12.3,2.3-16.4,3.4c-12.1,3.2-22.1,2.6-33.2-3.2c-3.7-1.9-7.2-3.9-10.1-7
		c-4.9-5.3-8.9-12.3-13.1-18.2c-5.6-7.8-11.6-15.5-16.7-23.6c8.8-1.5,18.8-2.4,27.6-1.2C426.2,590,461.7,607.4,479.8,618z"/>
	<path class="st1" d="M502.7,605.4l0.1,0.7c1.2,5.4,3.3,10.5,5,15.8c2.8,9,5.2,18.2,7.4,27.4c10.7,43.9,19.9,114.6,2.4,157.5
		c-2.9-0.3-5.8-0.7-8.7-1.2c-7.9-1.8-15.5-3.8-23.2-6.6c3.2-3.6,5.5-7,7.5-11.3c10.2-22.9,10.5-61.8,9-86.9
		c-1.4-24.5-5.7-64.1-16.2-86.3c-2.2-4.6-5.5-8.9-8.4-13.1c1.2-0.5,1.5-0.3,2.7-0.2C487.9,602,495.3,603.7,502.7,605.4z"/>
	<path class="st0" d="M348.4,711.4c-9.3,30.7-13.1,62.6-16.9,94.4c-3.2,27-6,54.5-7,81.7l-5.3-2.9c-9.8-5.2-19.3-10.8-28.4-17.2
		c3.7-25.3,6.7-50.4,11.5-75.5c4.5-23.3,10.6-46.3,15.6-69.4c0.6-2.6,3.1-18.9,4.2-19.8c0.1-0.1,0.1-0.1,0.2-0.1
		C330.7,706.7,339.3,709.2,348.4,711.4z"/>
	<path class="st1" d="M889.9,380c-9.7-4.5-19.1-5.2-29.3-1.5c-11.2,4.1-20,13-24.9,23.7c-5.2,11.3-6.2,25.6-1.8,37.3
		c3.6,9.6,11.1,18.1,20.6,22.2c0.6,0.3,1.2,0.5,1.8,0.7c0.6,0.2,1.2,0.4,1.8,0.7c0.6,0.2,1.2,0.4,1.8,0.6c0.6,0.2,1.2,0.3,1.9,0.5
		c0.6,0.1,1.3,0.3,1.9,0.4c0.6,0.1,1.3,0.2,1.9,0.3c0.6,0.1,1.3,0.1,1.9,0.2c0.6,0,1.3,0.1,1.9,0.1c0.6,0,1.3,0,1.9,0
		c0.6,0,1.3-0.1,1.9-0.1c0.6,0,1.3-0.1,1.9-0.2c0.6-0.1,1.3-0.2,1.9-0.3s1.3-0.2,1.9-0.4c0.6-0.1,1.2-0.3,1.9-0.5
		c0.6-0.2,1.2-0.4,1.8-0.6c0.6-0.2,1.2-0.4,1.8-0.7c2.7-1.1,5.2-2.5,7.8-3.9c-3,3.1-6.1,5.9-9.7,8.4c-15.1,10-32.1,16.2-50.3,12.5
		c-0.9-0.2-1.8-0.4-2.7-0.6c-0.9-0.2-1.8-0.5-2.6-0.7c-0.9-0.3-1.7-0.6-2.6-0.9c-0.9-0.3-1.7-0.6-2.5-1c-0.8-0.4-1.7-0.7-2.5-1.1
		c-0.8-0.4-1.6-0.8-2.4-1.3c-0.8-0.4-1.6-0.9-2.4-1.4c-0.8-0.5-1.5-1-2.3-1.5c-0.8-0.5-1.5-1-2.2-1.6c-0.7-0.6-1.4-1.1-2.1-1.7
		c-0.7-0.6-1.4-1.2-2.1-1.8c-0.7-0.6-1.3-1.3-2-1.9c-0.6-0.7-1.3-1.3-1.9-2c-0.6-0.7-1.2-1.4-1.8-2.1c-0.6-0.7-1.1-1.4-1.7-2.2
		c-0.5-0.7-1-1.5-1.5-2.3c-10.1-15.5-13.1-33.7-9.2-51.7c0.2-1.1,0.5-2.1,0.7-3.2c0.3-1.1,0.6-2.1,0.9-3.2c0.3-1,0.7-2.1,1.1-3.1
		c0.4-1,0.8-2,1.2-3c0.4-1,0.9-2,1.4-3c0.5-1,1-2,1.5-2.9c0.5-1,1.1-1.9,1.6-2.8c0.6-0.9,1.2-1.8,1.8-2.8c0.6-0.9,1.3-1.8,1.9-2.7
		c0.7-0.9,1.3-1.7,2-2.6c0.7-0.8,1.4-1.7,2.2-2.5c0.7-0.8,1.5-1.6,2.3-2.3c0.8-0.8,1.6-1.5,2.4-2.2c0.8-0.7,1.7-1.4,2.5-2.1
		c0.9-0.7,1.7-1.3,2.6-2c0.9-0.6,1.8-1.3,2.7-1.8c9.5-6,20.9-9,32.2-7.4C865.8,356.7,879.7,366.4,889.9,380z"/>
	<path class="st1" d="M425.8,776c2.2-0.9,4.8-3.7,7-4c0.2,0,0.4,0,0.6-0.1c0,3.4-0.2,6.9,0.3,10.2c0.8,11.1,0.8,22.2,1.3,33.3
		c1.1,23.3,2.1,46.7,2.9,70c-8.3-0.4-16.5-0.7-24.8-1.3l-3.7-0.3c-2-0.1-3.9-0.4-5.9-0.7c-8.5-1-16.9-2.3-25.4-3.9s-16.7-3.5-25-5.7
		l-2.6-0.8l-3.8-1l-4.4-1.5l-3.3-1.3c-1.5-0.5-3-1-4.4-1.7c-0.6-4.6,0.2-10.8,0.8-15.4c-0.1-3.2,0.5-6.4,0.9-9.6l0.1-2.6
		c0.7-10,1.5-19.9,2.6-29.8c0.3-3.1,0.6-6.2,1-9.3c2.1-7.7,1.3-17.6,2.8-25.8c2.8-3.3,5.6-8.1,9.3-10.3c6.9-4.1,19.6-3.5,27-1.1
		c5.7,1.8,8.4,4.6,11.2,9.7C401.4,777,414.6,780.4,425.8,776z"/>
	<path class="st0" d="M350.7,872.8c-1-3.6-2.7-8.2-1.6-11.9c2.6,2.3,3.4,9.4,4.2,12.7L350.7,872.8z"/>
	<path class="st0" d="M377.6,859.3c-0.1,0.1-0.2,0.2-0.2,0.2c-0.8-2.8-1.8-6.4-0.3-9.1c0.7-1.3,1.7-1.9,3.1-2.3
		C381,852.2,380.2,855.9,377.6,859.3z"/>
	<path class="st0" d="M342.5,870.3c-0.1-4.8-0.2-9.7-0.4-14.5c0.9,1,2.4,2.5,2.8,3.8c1.1,4,0.7,8.1,2.1,12.2L342.5,870.3z"/>
	<path class="st0" d="M342.7,842.7c-1.1,1.4-2.8,2.7-3.6,4.2c-0.6,1.1-0.7,3-0.8,4.2c-0.2,3,0.4,6,0.3,9c0.2,2.9,0.5,5.9,0.6,8.8
		c-1.5-0.5-3-1-4.4-1.7c-0.6-4.6,0.2-10.8,0.8-15.4c-0.1-3.2,0.5-6.4,0.9-9.6l0.1,2.9l0.7,0.6c3.2-1.2,6.3-7.4,9-9.9l0.7-0.6
		c0.1-0.1,0.3-0.3,0.4-0.4C346.1,837.6,344.6,840.3,342.7,842.7z"/>
	<path class="st0" d="M409.6,884c-2-0.1-3.9-0.4-5.9-0.7c2.1-2.9,2.9-7.2,3.9-10.6c0.3-12-3.6-16.1-10-25.2
		c-1.3-1.8-2.2-3.8-3.4-5.6c7.1,4.2,12.2,9.9,14.4,18.1c1.1,4.3,1.3,8.8,1,13.3C409.6,876.8,409.6,880.4,409.6,884z"/>
	<path class="st0" d="M363.9,840.4c-3,1.9-6.3,3.6-7.2,7.3c-0.5,2.2,0.2,5.1,0.5,7.3c-0.6,1.3-1.3,3.6-2.5,4.3
		c-0.2-0.1-0.3-0.3-0.5-0.4c-3.3-2.9-5-1.2-8.3-2.6c-1.4-2.3-3.3-4.6-2.6-7.5c0.5-2.2,2.4-3.8,3.9-5.4c0.4,3.6,0.4,5.6,3.1,8.2
		l1.4-0.7c0.1-3-1.2-4.4-2.9-6.8c1.2-2,2.3-4.2,4.1-5.8l1-0.1C357.5,838.5,360.6,839.1,363.9,840.4z"/>
	<path class="st0" d="M343.4,803.9c0.3,4.6,1.1,7.1,4.6,10.3c4,3.6,10.1,6.1,15.4,6.8l0.7-0.6c0-2.5-2.1-3.2-1.9-4.5
		c1.9-0.1,4.4,0.5,6.2,1.1c1.8,3.9,3.7,7.3,6.4,10.6c-9.2-1-21.2,1.1-29.4,5.5c-2.9,1.6-5.4,3.7-8,5.7c-0.6,0.4-0.4,0.2-0.8,0.9
		c0.7-10,1.5-19.9,2.6-29.8c0.3-3.1,0.6-6.2,1-9.3C341.5,801.6,342.6,802.4,343.4,803.9z"/>
	<path class="st0" d="M385.6,771.8l-0.2,0.5c-7.1,2.3-17.3-2.4-23.1,8.8c-2.5,4.9-3,11.5-1.2,16.7c1.5,4.2,4.5,7.9,8.6,9.8
		c3,1.4,6.1,1.2,9.1,2.3c-0.7,1.3-2.1,1.9-3.3,2.7c-5.7,1.4-12.6,0-17.5-3.1c-1.2-0.7-2.3-1.6-3.3-2.5c-0.9-4.3-1.7-8.6-2.5-12.9
		c-1.5-1.1-3.1-2.2-4.4-3.6c0.6-3.3,1.2-6.5,2.4-9.7c2.9-2.4,6.2-4.6,7.5-8.2c-0.2-1.8-1.3-2.4-2.7-3.5c0.5-1.2,0.9-1.5,2.1-1.9
		c5.3-1.9,12.2-1,17.8-1.2C377.8,766.9,383.7,769.6,385.6,771.8z"/>
	<path class="st0" d="M391.8,843.8c1.5,2.5,2.4,5.1,4.1,7.5c-1.2,1.7-3.3,4.2-3,6.4c0.6,4,5.5,7.4,3.7,11.7c-1,1-1.8,1.4-3.2,1.4
		c-3.3,0-7.1-2-9.3-4.4c-1-1.1-1.8-2.3-1.8-3.9c0-1.4,1.5-3,2.3-4c1.3-1.7,2-3.2,1.6-5.3c-0.4-1.8-1-2.4-0.4-4.3
		c0.1-0.2,0.1-0.5,0.2-0.7c0-0.2,0.1-0.3,0.2-0.5c-0.6-1.3-0.7-1.5-1.9-2.2c-1.2,0.1-2.4,0.3-3.6,0c-1-1.1-1-2.4-1.2-3.8l-0.7-0.9
		c-1.9-0.1-3.1,0.5-4.4,1.9c-1.3,1.2-2.1,2.5-2.6,4.2c-0.5,1.3-1.4,2.1-2.4,3.1c-1,4.2,2.7,6.1,2.7,9.7c-3.1,1-7.1-1.8-10.1-0.4
		c-0.2,0.9-0.3,0.6,0.2,1.5c1,1.6,2.5,2.1,4.2,2.4c3.5,0.6,7.1,0,10.6-0.6c3.6,5.6,6.1,9,12.4,11.7c2.9,0.6,6.5,1.6,9.2-0.1
		c1.4-0.8,1.9-1.9,2.2-3.5c0.7-4.9-5.2-10.4-3.4-14.6c1.3,0,1.9,0.4,2.8,1.3c2.8,3,4,8.2,3.6,12.2c-0.2,2.5-1,6.1-3,7.8
		c-3.1,2.6-27.1-2.9-32-3.9c-3.9-0.9-7.8-1.8-11.7-2.8c-1.3-2.3-2.8-5-2.8-7.7c0.9-0.6,1.6-1,2.6-1.4c3.3-1.3,4-6.6,5.5-6.3
		c0.2,0,1,0.5,1.2,0.6c0.5-2.4-2.5-5.8-1.6-8c1.3-3.2,6.6-3.9,6.5-8c-2.3-2.9-5.7-3.7-9.2-4.1c-1.6-0.2-3.2-0.4-4.9-0.4
		c6.4-1.8,13-3.2,19.7-3.1C381.1,835,387.5,836.5,391.8,843.8z"/>
	<path class="st0" d="M433.8,782.2c0.8,11.1,0.8,22.2,1.3,33.3c1.1,23.3,2.1,46.7,2.9,70c-8.3-0.4-16.5-0.7-24.8-1.3
		c0.4-0.2,0.7-0.5,1.1-0.9c1.5-7.5,0.8-18.9-1.7-26.2c-4.9-14-20.2-21.8-32.7-27.8c-0.1-0.1-0.1-0.2-0.2-0.4l-0.3-0.6
		c-2.1-3.8-4.8-7.2-7.4-10.7c2.8-0.3,4.8-0.7,7.2-2.3c5.1-3.2,12.1-10.1,13.3-16.2c0.6-3.1-1.1-5.1-2.7-7.6
		c-0.3-1.7,0.6-2.8,1.2-4.3c1.1-2.7-0.1-5.1-1.2-7.6c-1.3-0.7-2.5-1.4-4-1.7l-1,0.5l-0.5,3.1c-1.6-0.6-3.2-1.4-4.8-2.2
		c-3.5,0.9-8.4,2.1-10.5,5.4c-0.7,1.2-1.3,2.7-0.8,4.1c0.4,1.2,1.4,2.4,2.1,3.4c-0.8,1-0.2,0.3-1.2,1.2c-0.7,0.6-0.8,0.8-1,1.6
		c0.3,1.2,0.4,1.6,1.3,2.5l1-0.1c0.1-0.2,0.3-0.5,0.4-0.7c0.6-0.9,0.3-0.6,1.1-1.3c1.1,3.6-1.8,4.8,1.9,7.7c2.2-3.6,1.8-8,4.3-11.6
		c-1.7-0.7-4.3-1.3-5.2-3.1c-0.6-1.2-0.3-1.7,0.2-2.9c2-1.9,4.6-2.7,7.4-2.6c1.5,0.1,3.3,0.5,4.4,1.7c0.9,1,1.1,2.2,0.9,3.5
		c-0.2,1-0.5,1.1-1.2,1.8c-2,0.5-4.3,0.7-5.7,2.3l-0.1,1.4c2.6,2.2,8.1-0.8,8.9,4.2c-0.9,2.6-2.8,4-5.2,5.2c-2.5,1.2-5.4,1.2-8.1,1
		c-3.1-0.6-5.6-2.5-7.4-5c-2.3-3.3-3-7.5-2.2-11.5c0.1-0.5,0.2-0.9,0.3-1.4c0.1-0.5,0.3-0.9,0.5-1.4c0.2-0.4,0.4-0.9,0.6-1.3
		c0.2-0.4,0.5-0.8,0.8-1.2c0.3-0.4,0.6-0.8,0.9-1.1s0.6-0.7,1-1c0.3-0.3,0.7-0.6,1.1-0.9c0.4-0.3,0.8-0.6,1.2-0.8
		c5.9-3.7,13-2.7,19.4-1.3C404.2,782,419.3,785,433.8,782.2z"/>
	<path class="st0" d="M455.3,725.5c2,17.8,10.2,68.1,24,79c19.2,15.2,67.6,15.1,91.6,11.8c7.9-1.1,15.8-2.9,23.6-4.8
		c3.4,17.3,6.9,35,8.6,52.5c-6.3,4.6-13.6,8.1-20.8,11c-40.2,16.3-90.4,26-133.8,24.5c-1.4-12.5-1.6-25.2-2.3-37.7l-2.8-54.3
		l-2.8-59.4c-0.3-6.1-1-12.3-1.1-18.4c0-1.6,0-3.1,0.6-4.7c0.9-0.4,1.3-0.4,2.2-0.3C446.6,725,451,725.3,455.3,725.5z"/>
	<path class="st0" d="M442.5,93.8c8.6,0.7,17.2,0.5,25.8,0.9c13.7,0.8,27.3,2.1,40.9,4.1c48.3,6.8,98.6,19.2,143.8,37.9
		c18.6,7.9,36.7,16.7,54.3,26.6c9.5,5.2,19,10.4,28.1,16.3c25.8,16.7,54.9,41.4,74.9,65.1c9.8,11.5,19.6,24.1,27.3,37
		c-1.3,12.5-3.4,25-5.1,37.5c-8.1-3.4-17.2-4-25.8-2.6c-4.1-5.9-9-11.4-13.6-16.9c-8-9.5-16-18.8-24.7-27.7
		c-83.1-84.7-174.8-136.6-292.4-156.7c-17.5-3-35.2-5.9-53-7.4c-13.5-1.2-27-1.4-40.6-1.5c19.7-6,39.4-10.7,59.8-13.2L442.5,93.8z"
		/>
	<path class="st0" d="M284.2,500.2c30.5,40.6,60,82.1,90.3,123c6.4,8.7,13,17.3,19.3,26.1c4.9,6.9,9.5,14.3,15.5,20.4
		c-6.3-0.3-12.5-1.1-18.8-1.8l-83.6-11c-12.5-1.7-29.5-2.3-41.3-6.3c-6.8-2.3-12.3-6.8-17.4-11.7c3.8-1.2,9-2.2,11.1-6
		c2.2-4.1,1.3-9.1-0.1-13.3c-4.7-14.6-17.7-26.9-31.2-33.6c-7.9-3.9-18.4-7.3-27.1-4.3c-1.5,0.5-2.9,1.2-4.3,1.9
		c-9.3-12.5-19.6-24.2-29.5-36.2c-15.6-18.9-31.3-37.8-47.1-56.5l5.6,0.3C178.4,495,231.4,496.3,284.2,500.2z"/>
	<path class="st0" d="M544.4,529.3c8.2,5.1,24.5,27.3,30.3,36c2,3.1,4,6.2,6,9.3c2,3.1,3.9,6.3,5.7,9.5c1.9,3.2,3.7,6.4,5.5,9.6
		c1.8,3.2,3.5,6.5,5.3,9.7c1.7,3.3,3.4,6.6,5,9.9c1.6,3.3,3.2,6.6,4.7,10c1.5,3.4,3,6.7,4.5,10.1c1.5,3.4,2.9,6.8,4.2,10.2
		c1.4,3.4,2.7,6.9,4,10.3c1.3,3.5,2.5,6.9,3.7,10.4c1.2,3.5,2.3,7,3.4,10.5c1.1,3.5,2.2,7.1,3.2,10.6c1,3.5,2,7.1,2.9,10.7
		c0.9,3.6,1.8,7.2,2.6,10.8c0.8,3.6,1.6,7.2,2.3,10.8c0.7,3.6,1.4,7.2,2.1,10.9c2.7,14.5,5.6,30,4.9,44.9
		c-20.6,22.6-59.5,33.5-89.4,34.9c-5.3,0.3-10.6,0.4-15.9,0.2c-5.3-0.1-10.6-0.5-15.9-1.1c18.1-35.7,10-108.8,1.1-146.9
		c-4.3-18.2-9-36.1-17-53.1c25.3,5.3,49.9,13.6,74.1,22.7c3.2,1.2,11.1,5,14.1,3.5c-0.6-2.6-4.4-4.9-6.7-6.3
		c-17.9-11.2-52.4-21.8-73.1-25.3c4.9-18.2,9.6-36.1,17.4-53.3c-13.9,9.8-18.7,36.9-22.7,52.8c-10.4-2.5-32.7-9.8-41.9-4.3
		c-2.3,1.3-3.3,3.6-4.4,5.8c-4.3-2.4-8.7-4.7-13.2-6.9c23.6-25.1,42.5-43.4,72-61.8c3.4-2.1,9.6-6.8,13.6-6.9c0.7,0,1.4,0,2.1,0.1
		C540.8,528,542.8,528.3,544.4,529.3z"/>
	<path class="st1" d="M713.8,231.7c9.5,7.9,18.7,16.2,27.6,24.7c8.9,8.5,17.6,17.3,26,26.4c10.4,11.5,20.4,23.4,30.4,35.3
		c-25.4,8.2-43.8,24.8-56,48.5c-13.3,25.9-15.3,58.3-6.3,85.9c0.2,0.7,0.5,1.5,0.7,2.2c0.3,0.7,0.5,1.5,0.8,2.2
		c0.3,0.7,0.6,1.5,0.8,2.2c0.3,0.7,0.6,1.4,0.9,2.2c0.3,0.7,0.6,1.4,1,2.1c0.3,0.7,0.7,1.4,1,2.1c0.3,0.7,0.7,1.4,1.1,2.1
		c0.4,0.7,0.7,1.4,1.1,2.1c0.4,0.7,0.8,1.4,1.2,2c0.4,0.7,0.8,1.3,1.2,2c0.4,0.7,0.8,1.3,1.3,2c0.4,0.6,0.9,1.3,1.3,1.9
		c0.4,0.6,0.9,1.3,1.4,1.9c0.5,0.6,0.9,1.2,1.4,1.9c0.5,0.6,1,1.2,1.4,1.8c0.5,0.6,1,1.2,1.5,1.8c0.5,0.6,1,1.2,1.5,1.8
		c0.5,0.6,1,1.1,1.6,1.7c0.5,0.6,1.1,1.1,1.6,1.7c0.5,0.5,1.1,1.1,1.7,1.6c0.6,0.5,1.1,1.1,1.7,1.6c0.6,0.5,1.2,1,1.7,1.5
		c0.6,0.5,1.2,1,1.8,1.5s1.2,1,1.8,1.5c0.6,0.5,1.2,0.9,1.9,1.4c0.6,0.5,1.3,0.9,1.9,1.4c0.6,0.4,1.3,0.9,1.9,1.3s1.3,0.9,2,1.3
		c0.7,0.4,1.3,0.8,2,1.2c0.7,0.4,1.3,0.8,2,1.2c0.7,0.4,1.4,0.8,2,1.1c0.7,0.4,1.4,0.7,2.1,1.1c15.6,7.7,31.3,9.6,48.3,6.7
		c-7,5.6-13.9,10.9-21.8,15.1c-32.8,17.3-74.7,17.9-110.9,14.9C580.3,534,289.5,463.9,212.8,372.4c-16.5-19.6-25.5-41.9-23.1-67.7
		c5-54.2,51.2-111.2,91.8-144.5c20.3-16.7,43.7-29.5,67.4-40.6c5.8-2.7,12.1-6.1,18.3-7.6c6.8-1.6,16.5-0.7,23.5-0.2
		C514.8,118,617.9,150.3,713.8,231.7z"/>
	<path d="M480.1,152c1.9,2.3,2.8,5,2.4,7.9c-0.7,5.4-9.5,20.7-14,23.9c-3.1,2.3-8.4,1-11.9,0.5c-8.4-1.6-27.4-4.8-32.1-11.9
		c-1.4-2.1-1.4-4.6-0.8-6.9c2-8.4,10-19.5,17.5-23.7c2.5-1.4,5.4-1.9,8.2-1.7C458.7,141,473.8,144.4,480.1,152z"/>
	<path class="st1" d="M449.2,153.1c-5.8,3.2-9.5,7.9-12.9,13.5c-1.1,1.8-1.9,3.9-3.3,5.5c-1.1-0.7-2.7-1.4-3.5-2.6
		c-0.6-0.9,0.1-3,0.5-4c2.3-5.9,9.2-16.7,15.3-19.2c5-2.1,14,1,18.8,2.8c5.2,1.9,10.1,4.3,12.5,9.5
		C467.3,158.6,458.7,153.4,449.2,153.1z"/>
	<path class="st0" d="M465,180.1c-10-1.2-22.8-3.7-32-8c1.4-1.6,2.2-3.7,3.3-5.5c3.4-5.6,7.1-10.2,12.9-13.5
		c9.5,0.3,18.1,5.5,27.3,5.5C476.5,162.9,468.1,176.2,465,180.1z"/>
	<path d="M412.8,133.5c1,1.2,1.2,2,1,3.5c-0.8,8.4-17.3,41.4-13.6,46.7c4.7,6.8,58.6,18.5,69.1,19.8c4,0.5,8.1,1,12.2,1
		c14.2-15.5,33.8-39.9,56.3-40.9c17.4-0.8,47.2,13.4,62,22.6c3.8,2.3,7.4,4.9,11,7.6c3.5,2.7,6.9,5.5,10.2,8.6
		c28.6,26.4,47,59.7,48.5,99.1c1.5,39.6-16.8,81.8-43.6,110.4c-24.4,26.1-55.2,44.1-90.6,50.3c-4.4,0.8-8.9,1.4-13.4,1.9
		c-4.5,0.5-9,0.8-13.4,1c-4.5,0.2-9,0.3-13.5,0.2c-4.5-0.1-9-0.3-13.5-0.7c-17.5-1.5-35.4-4.3-52.4-8.3
		c-40.4-9.4-80.3-24-118.3-40.6c-22.5-9.8-45.8-20.7-65.8-35.1c-19.7-14.1-35.2-32.7-39.1-57.1c-1.3-8.2-1.7-16.7-0.7-25
		c3.4-27.4,20.9-59.6,37-81.8c10.9-14.9,23.6-30,37.4-42.3c25.1-22.3,58.6-39.4,91.9-44.7c6.4-1,12.8-1.4,19.3-1.3
		C396.3,128.5,408.7,128.9,412.8,133.5z"/>
	<path class="st1" d="M407.8,136.4c-4.4,9.4-16.5,37.8-13.6,46.9c1.3,3.8,6,6.1,9.4,7.6c20.8,9.3,57.5,18.4,80.3,19.4l0.7-0.5
		c15.3-11.5,35.6-43.1,57-40.1c7.8,1.1,15.4,4,22.7,6.9c28.6,11.6,54.3,30,72.9,54.8c0.6,0.8,1.2,1.6,1.8,2.5
		c0.6,0.8,1.2,1.7,1.7,2.5c0.6,0.8,1.1,1.7,1.7,2.5c0.6,0.9,1.1,1.7,1.6,2.6c0.5,0.9,1.1,1.7,1.6,2.6c0.5,0.9,1,1.8,1.5,2.7
		c0.5,0.9,1,1.8,1.4,2.7c0.5,0.9,0.9,1.8,1.4,2.7c0.4,0.9,0.9,1.8,1.3,2.8c0.4,0.9,0.8,1.9,1.2,2.8c0.4,0.9,0.8,1.9,1.2,2.8
		c0.4,0.9,0.7,1.9,1.1,2.8c0.4,1,0.7,1.9,1,2.9c0.3,1,0.6,1.9,0.9,2.9c0.3,1,0.6,1.9,0.9,2.9c0.3,1,0.5,2,0.8,2.9c0.3,1,0.5,2,0.7,3
		c0.2,1,0.4,2,0.7,3c0.2,1,0.4,2,0.6,3c0.2,1,0.4,2,0.5,3c0.2,1,0.3,2,0.4,3c0.1,1,0.3,2,0.4,3c0.1,1,0.2,2,0.3,3c0.1,1,0.2,2,0.2,3
		c0.1,1,0.1,2,0.1,3c0,1,0.1,2,0.1,3c0,1,0,2,0,3c0,1,0,2-0.1,3c0,1-0.1,2-0.2,3c-0.1,1-0.2,2-0.2,3c-0.1,1-0.2,2-0.3,3
		c-0.1,1-0.3,2-0.4,3c-6.1,41.3-30.1,79.8-63.5,104.5c-20.3,14.9-43.7,23.8-68.4,28c-17.8,2.8-35.7,2.7-53.6,0.8
		c-56.2-6.1-114-25.6-165.6-48.3c-19.7-8.7-38.5-17.3-55.9-30.1c-19.5-14.2-36.9-34.3-40.6-59c-5-33.9,19.1-78.7,39-105.3
		c24.9-33.3,50.4-54.6,89.7-69.2c10.4-3.9,20.8-7.3,31.8-8.9c7.9-1.1,16.5-1.9,24.4-1.4C401.6,135,404.5,135.5,407.8,136.4z"/>
	<path d="M370.6,370.8c11,0.7,20.8-1.7,31.4-4.3c0.8,1,0.8,1,0.8,2.2c-1.1,1.7-2.5,2.4-4.3,3.2c-15.1,5.7-31.5,6.8-46.5,0
		c-7.4-3.4-18.4-11.5-21.1-19.4c-0.2-0.7-0.2-1.3-0.1-2c1.1-1.1,1.5-1.2,3.1-1.3C344.8,361.7,353.3,369.7,370.6,370.8z"/>
	<path d="M368,193.8c6.8,12.2,1.7,34.3-2.3,47c-8.5,27.5-32.4,76.5-58.3,90c-9.4,4.9-19.7,6.5-29.9,3.3c-1.7-0.5-3.4-1.2-5.1-1.8
		c-8.7-4-15.5-9.5-18.9-18.7c-5.3-14.6-0.5-31.8,5.8-45.2c13-27.5,47.8-71.6,76.6-81.6c1.4-0.5,2.9-0.9,4.4-1.3
		c1.5-0.3,3-0.6,4.5-0.8c1.5-0.2,3-0.3,4.6-0.3c1.5,0,3.1,0,4.6,0.2C359.9,186.1,365,188.3,368,193.8z"/>
	<path class="st1" d="M352.6,217.1c3.6,10.4-2,25.9-6.8,35.1c-6,11.7-16.4,25.4-29.5,29.4c-2.6,0.8-4.9,0.9-7.6,0.8
		c-3.5-1.4-5.8-2.8-7.4-6.4c-3.6-7.8,0.4-19,3.4-26.5c6.1-14.9,16.7-32.8,32.2-39.5c2.6-1.1,5.2-1.7,8-1.6
		C348.8,210.5,351.2,213,352.6,217.1z"/>
	<path d="M566.3,249.1c10.6,13.4,11.4,30.9,9.4,47.2c-3.9,32.1-21.5,77.1-47.6,97.1c-13.7,10.5-32.3,14.5-49.2,12.1
		c-2.8-0.4-5.5-0.9-8.2-1.6c-13-3.6-26.6-11-33.4-23.2c-6.8-12.3-5.4-26.8-1.6-39.8c9.6-32.9,41.8-82.1,71.6-98
		c10.1-5.4,21-7.7,32.5-6.7C550.4,237.4,559.4,240.5,566.3,249.1z"/>
	<path class="st1" d="M539.5,271.8c4,11-1.1,25.7-6,35.6c-7.2,14.4-20.9,28.3-36.5,33.5c-4.6,1.5-8.7,1.8-13.5,1
		c-4.3-1.5-7.4-3.5-9.3-7.8c-3.8-8.3-0.5-21,2.7-29c6.4-16.3,20.7-33.4,37-40.5c5.3-2.3,10.5-3.1,16.3-2.4
		C534.7,264.2,537.7,267,539.5,271.8z"/>
</g>
</svg>
